<svg width="16" height="16" viewBox="0 0 16 16" fill="none" xmlns="http://www.w3.org/2000/svg">
<path d="M14.5501 14.125H14.2478L14.0549 13.3536C14.0397 13.2927 13.985 13.25 13.9223 13.25H2.07773C2.01501 13.25 1.96032 13.2927 1.94509 13.3536L1.75223 14.125H1.44987C1.2143 14.125 1.0116 14.306 1.0005 14.5413C0.98866 14.7926 1.18884 15 1.43751 15H14.5625C14.8112 15 15.0114 14.7926 14.9995 14.5413C14.9884 14.306 14.7857 14.125 14.5501 14.125Z" fill="black"/>
<path d="M6.91861 4.71875H7.5625V5.39337C4.87157 5.61645 2.75 7.87745 2.75 10.625V10.8438C2.50133 10.8438 2.30129 11.0509 2.31299 11.3022C2.32393 11.5376 2.52663 11.7188 2.76227 11.7188H4.0625V12.2383C4.0625 12.3138 4.12372 12.375 4.19922 12.375H11.8008C11.8763 12.375 11.9375 12.3138 11.9375 12.2383V11.7188H13.2377C13.4734 11.7188 13.676 11.5376 13.687 11.3022C13.6987 11.0509 13.4987 10.8438 13.25 10.8438V10.625C13.25 7.87745 11.1284 5.61645 8.4375 5.39337V4.71875H9.08139C9.31695 4.71875 9.51965 4.53771 9.53075 4.30241C9.54259 4.05118 9.34241 3.84375 9.09375 3.84375H6.90625C6.65758 3.84375 6.4574 4.05118 6.46924 4.30241C6.48034 4.53771 6.68304 4.71875 6.91861 4.71875Z" fill="black"/>
<path d="M1.4375 8.4375H2.3125C2.55414 8.4375 2.75 8.24161 2.75 8C2.75 7.75839 2.55414 7.5625 2.3125 7.5625H1.4375C1.19586 7.5625 1 7.75839 1 8C1 8.24161 1.19586 8.4375 1.4375 8.4375Z" fill="black"/>
<path d="M13.6875 8.4375H14.5625C14.8041 8.4375 15 8.24161 15 8C15 7.75839 14.8041 7.5625 14.5625 7.5625H13.6875C13.4459 7.5625 13.25 7.75839 13.25 8C13.25 8.24161 13.4459 8.4375 13.6875 8.4375Z" fill="black"/>
<path d="M3.67072 4.28761C3.84156 4.45845 4.11858 4.45848 4.28942 4.28761C4.46029 4.11674 4.46029 3.83975 4.28942 3.6689L3.67069 3.05014C3.49984 2.8793 3.22283 2.87927 3.05198 3.05014C2.88111 3.22101 2.88111 3.498 3.05198 3.66885L3.67072 4.28761Z" fill="black"/>
<path d="M12.022 4.4158C12.1339 4.4158 12.2459 4.37306 12.3313 4.28767L12.95 3.66896C13.1209 3.49809 13.1209 3.2211 12.95 3.05025C12.7792 2.87941 12.5022 2.87941 12.3313 3.05025L11.7126 3.66896C11.4362 3.94532 11.6357 4.4158 12.022 4.4158Z" fill="black"/>
<path d="M8 2.75C8.24164 2.75 8.4375 2.55411 8.4375 2.3125V1.4375C8.4375 1.19589 8.24164 1 8 1C7.75836 1 7.5625 1.19589 7.5625 1.4375V2.3125C7.5625 2.55411 7.75836 2.75 8 2.75Z" fill="black"/>
</svg>
