<svg xmlns="http://www.w3.org/2000/svg" version="1.1" xmlns:xlink="http://www.w3.org/1999/xlink" width="16" height="16" x="0" y="0" viewBox="0 0 64 64" style="enable-background:new 0 0 512 512" xml:space="preserve" class=""><g><path d="M5.25 49v-2.25h53.5V49A1.76 1.76 0 0 1 57 50.75H7A1.76 1.76 0 0 1 5.25 49Zm53.5-3.75V39A1.76 1.76 0 0 0 57 37.25H7A1.76 1.76 0 0 0 5.25 39v6.25Zm-51.5 7V54a.76.76 0 0 0 .75.75h4a.76.76 0 0 0 .67-.41l1.05-2.09Zm43 0 1 2.09a.76.76 0 0 0 .67.41h4a.76.76 0 0 0 .75-.75v-1.75ZM7 35.75h50a2.78 2.78 0 0 1 .58.06A4.74 4.74 0 0 0 53 32.25H11a4.74 4.74 0 0 0-4.58 3.56 2.78 2.78 0 0 1 .58-.06Zm6-26.5h-3a.76.76 0 0 0-.75.75v21a6 6 0 0 1 1.75-.25h2.75V10a.76.76 0 0 0-.75-.75Zm37.25.75v20.75H53a6 6 0 0 1 1.75.26V10a.76.76 0 0 0-.75-.75h-3a.76.76 0 0 0-.75.75ZM28 25.75h-7A1.25 1.25 0 0 0 19.75 27v3.75h9.5V27A1.25 1.25 0 0 0 28 25.75Zm11.45-10.5a7.93 7.93 0 0 0-6.92-4h-1.06a7.93 7.93 0 0 0-6.92 4h-9.3v15.5h3V27A2.75 2.75 0 0 1 21 24.25h7A2.75 2.75 0 0 1 30.75 27v3.75h2.5V27A2.75 2.75 0 0 1 36 24.25h7A2.75 2.75 0 0 1 45.75 27v3.75h3v-15.5ZM43 25.75h-7A1.25 1.25 0 0 0 34.75 27v3.75h9.5V27A1.25 1.25 0 0 0 43 25.75Z" fill="#fff" opacity="1" data-original="#000000" class=""></path></g></svg>