<svg height="24" viewBox="0 0 64 64" width="24" xmlns="http://www.w3.org/2000/svg"><g id="Layer_15" data-name="Layer 15"><path d="m40 31v-9a5 5 0 0 0 -5-5h-24a5 5 0 0 0 -5 5v9a5 5 0 0 0 -2 4v11a1 1 0 0 0 1 1h3a2 2 0 0 0 2-2 3 3 0 0 1 3-3h20a3 3 0 0 1 3 3 2 2 0 0 0 2 2h3a1 1 0 0 0 1-1v-11a5 5 0 0 0 -2-4zm-32-9a3 3 0 0 1 3-3h24a3 3 0 0 1 3 3v8.1a5.47 5.47 0 0 0 -1-.1h-1v-2a3 3 0 0 0 -3-3h-8a3 3 0 0 0 -2 .78 3 3 0 0 0 -2-.78h-8a3 3 0 0 0 -3 3v2h-1a5.47 5.47 0 0 0 -1 .1zm4 8v-2a1 1 0 0 1 1-1h8a1 1 0 0 1 1 1v2zm12-2a1 1 0 0 1 1-1h8a1 1 0 0 1 1 1v2h-10zm-18 7a3 3 0 0 1 3-3h28a3 3 0 0 1 3 3v1h-34zm32 10a5 5 0 0 0 -5-5h-20a5 5 0 0 0 -5 5h-2v-7h34v7z"/><path d="m59 35h-6v-4h1v1a1 1 0 0 0 2 0v-1a1 1 0 0 0 .76-.34 1 1 0 0 0 .23-.8l-1-7a1 1 0 0 0 -.99-.86h-6a1 1 0 0 0 -1 .86l-1 7a1 1 0 0 0 .23.8 1 1 0 0 0 .77.34h3v4h-6a1 1 0 0 0 0 2v9a1 1 0 0 0 2 0v-1h10v1a1 1 0 0 0 2 0v-9a1 1 0 0 0 0-2zm-9.13-11h4.26l.72 5h-5.7zm7.13 19h-10v-6h10z"/><path d="m50 40a1 1 0 0 0 1 1h2a1 1 0 0 0 0-2h-2a1 1 0 0 0 -1 1z"/></g></svg>