<svg height="16" viewBox="0 0 64 64" width="16" xmlns="http://www.w3.org/2000/svg"><g id="Layer_25" data-name="Layer 25"><path d="m40 33v-9a5 5 0 0 0 -5-5h-24a5 5 0 0 0 -5 5v9a5 5 0 0 0 -2 4v11a1 1 0 0 0 1 1h3a2 2 0 0 0 2-2 3 3 0 0 1 3-3h20a3 3 0 0 1 3 3 2 2 0 0 0 2 2h3a1 1 0 0 0 1-1v-11a5 5 0 0 0 -2-4zm-32-9a3 3 0 0 1 3-3h24a3 3 0 0 1 3 3v8.1a5.47 5.47 0 0 0 -1-.1h-1v-2a3 3 0 0 0 -3-3h-8a3 3 0 0 0 -2 .78 3 3 0 0 0 -2-.78h-8a3 3 0 0 0 -3 3v2h-1a5.47 5.47 0 0 0 -1 .1zm4 8v-2a1 1 0 0 1 1-1h8a1 1 0 0 1 1 1v2zm12-2a1 1 0 0 1 1-1h8a1 1 0 0 1 1 1v2h-10zm-18 7a3 3 0 0 1 3-3h28a3 3 0 0 1 3 3v1h-34zm32 10a5 5 0 0 0 -5-5h-20a5 5 0 0 0 -5 5h-2v-7h34v7z"/><path d="m58 15.8a1 1 0 0 0 -1-.8h-8a1 1 0 0 0 -1 .8l-2 10a1 1 0 0 0 .21.83 1 1 0 0 0 .79.37h5v16.1a5 5 0 0 0 -4 4.9 1 1 0 0 0 1 1h8a1 1 0 0 0 1-1 5 5 0 0 0 -4-4.9v-16.1h2v2a1 1 0 0 0 2 0v-2h1a1 1 0 0 0 .77-.37 1 1 0 0 0 .23-.83zm-2.17 31.2h-5.66a3 3 0 0 1 5.66 0zm.35-30 .4 2h-7.16l.4-2zm-7.18 4h8l.8 4h-9.58z"/></g></svg>