<svg width="16" height="16" viewBox="0 0 16 16" fill="none" xmlns="http://www.w3.org/2000/svg">
<path d="M15.3654 9.62904C15.3654 9.44919 15.2305 9.29181 15.0507 9.24685L15.0731 7.89795L15.1856 2.27753C15.1856 2.00775 14.8258 1.89534 14.6685 2.12016C14.4661 2.47987 14.3088 2.86205 14.2638 3.28921L13.6568 7.89795L13.6118 8.23517C13.5894 8.39255 13.7242 8.54992 13.8816 8.54992H14.2413C14.3088 8.54992 14.3762 8.5724 14.4437 8.61736C14.4886 8.66233 14.5336 8.72977 14.5336 8.8197V9.22437H14.3987C14.2863 9.22437 14.1964 9.26933 14.1064 9.33678C14.039 9.40422 13.994 9.51663 13.994 9.62904L14.0165 13.1137C14.0165 13.3385 14.1964 13.5184 14.4212 13.5184H15.0057C15.2305 13.5184 15.4104 13.3385 15.4104 13.1137L15.3654 9.62904Z" fill="black"/>
<path d="M8.46425 4.5482C6.62076 4.5482 5.13697 6.05447 5.13697 7.87549C5.13697 9.71899 6.62076 11.2028 8.46425 11.2028C10.3078 11.2028 11.7915 9.71899 11.7915 7.87549C11.7915 6.05447 10.3078 4.5482 8.46425 4.5482ZM8.46425 5.67228C7.25024 5.67228 6.26105 6.66148 6.26105 7.87549C6.26105 8.01038 6.14864 8.14527 5.99127 8.14527C5.8339 8.14527 5.72149 8.03286 5.72149 7.87549C5.72149 6.36922 6.95798 5.13272 8.46425 5.13272C8.62163 5.13272 8.73403 5.24513 8.73403 5.4025C8.73403 5.55988 8.62163 5.67228 8.46425 5.67228ZM8.46425 4.5482C6.62076 4.5482 5.13697 6.05447 5.13697 7.87549C5.13697 9.71899 6.62076 11.2028 8.46425 11.2028C10.3078 11.2028 11.7915 9.71899 11.7915 7.87549C11.7915 6.05447 10.3078 4.5482 8.46425 4.5482ZM8.46425 5.67228C7.25024 5.67228 6.26105 6.66148 6.26105 7.87549C6.26105 8.01038 6.14864 8.14527 5.99127 8.14527C5.8339 8.14527 5.72149 8.03286 5.72149 7.87549C5.72149 6.36922 6.95798 5.13272 8.46425 5.13272C8.62163 5.13272 8.73403 5.24513 8.73403 5.4025C8.73403 5.55988 8.62163 5.67228 8.46425 5.67228ZM8.46425 3.24426C5.90134 3.24426 3.81055 5.33506 3.81055 7.89797C3.81055 10.4609 5.90134 12.5517 8.46425 12.5517C11.0272 12.5517 13.118 10.4609 13.118 7.89797C13.118 5.31258 11.0272 3.24426 8.46425 3.24426ZM8.46425 11.7423C6.32849 11.7423 4.59741 10.0112 4.59741 7.87549C4.59741 5.73973 6.32849 4.00864 8.46425 4.00864C10.6 4.00864 12.3311 5.73973 12.3311 7.87549C12.3311 10.0112 10.6 11.7423 8.46425 11.7423ZM8.46425 4.5482C6.62076 4.5482 5.13697 6.05447 5.13697 7.87549C5.13697 9.71899 6.62076 11.2028 8.46425 11.2028C10.3078 11.2028 11.7915 9.71899 11.7915 7.87549C11.7915 6.05447 10.3078 4.5482 8.46425 4.5482ZM8.46425 5.67228C7.25024 5.67228 6.26105 6.66148 6.26105 7.87549C6.26105 8.01038 6.14864 8.14527 5.99127 8.14527C5.8339 8.14527 5.72149 8.03286 5.72149 7.87549C5.72149 6.36922 6.95798 5.13272 8.46425 5.13272C8.62163 5.13272 8.73403 5.24513 8.73403 5.4025C8.73403 5.55988 8.62163 5.67228 8.46425 5.67228Z" fill="black"/>
<path d="M3.81021 2.25523L3.78773 5.26778C3.78773 6.03215 3.15824 6.63916 2.39386 6.63916C1.62949 6.63916 1 6.03215 1 5.26778V2.25523C1 2.12034 1.11241 2.00793 1.2473 2.00793C1.38219 2.00793 1.4946 2.12034 1.4946 2.25523V4.79566C1.4946 4.95303 1.62949 5.08792 1.78686 5.08792H1.8543C2.01168 5.08792 2.14657 4.95303 2.14657 4.79566V2.25523C2.14657 2.12034 2.25897 2.00793 2.39386 2.00793H2.43883C2.57372 2.00793 2.68613 2.12034 2.68613 2.25523V4.79566C2.68613 4.95303 2.82102 5.08792 2.97839 5.08792H3.02335C3.18072 5.08792 3.31561 4.95303 3.31561 4.79566V2.25523C3.31561 2.12034 3.42802 2.00793 3.56291 2.00793C3.6978 2.00793 3.81021 2.12034 3.81021 2.25523Z" fill="black"/>
<path d="M2.66123 13.8108H2.14416C1.78445 13.8108 1.49219 13.5185 1.49219 13.1588V10.5284C1.49219 10.1687 1.78445 9.87646 2.14416 9.87646H2.66123C3.02094 9.87646 3.3132 10.1687 3.3132 10.5284V13.1363C3.33568 13.496 3.02094 13.8108 2.66123 13.8108Z" fill="black"/>
<path d="M2.88468 7.08862V9.4492C2.72731 9.40424 2.56994 9.35927 2.39008 9.35927C2.21023 9.35927 2.05286 9.38175 1.91797 9.4492V7.08862C2.07534 7.13359 2.23271 7.15607 2.41257 7.15607H2.43505C2.56994 7.15607 2.74979 7.13359 2.88468 7.08862Z" fill="black"/>
</svg>
