<svg xmlns="http://www.w3.org/2000/svg" version="1.1" xmlns:xlink="http://www.w3.org/1999/xlink" width="512" height="512" x="0" y="0" viewBox="0 0 64 64" style="enable-background:new 0 0 512 512" xml:space="preserve" class=""><g><path fill="#e7ce83" d="M24.6 25.5h14.8v16.6H24.6z" opacity="1" data-original="#e7ce83"></path><path fill="#fbd984" d="M25.9 6.6c-2.7 2.6-3.4 6.9-3.2 12-.1-.7-.2-1.5-1-1.7-1.3-.2-2 .7-1.1 3.4.9 2.2 1.7 3.1 2.7 3.4.4 1.6.9 2.6 1.6 4.1.7 1.4 1.7 2.6 3 3.4.7.4 1.4.8 2.1.7 1.3.1 2.6.1 4.1 0 .6 0 1.4-.3 2.1-.7 1.3-.8 2.3-2 3-3.4.7-1.5 1.1-2.5 1.6-4.1 1-.3 1.9-1.2 2.7-3.4.9-2.7.2-3.7-1.1-3.4-.8.3-.9 1-1 1.7 1.2-4.1.1-8.1-3.2-12z" opacity="1" data-original="#fbd984"></path><path fill="#333842" d="M41.5 18.4C43.3 15 44 11.3 43 6.9 42.1 4 39.8 2 37 2.1 33.4-1.4 23.8-.6 21.4 5.2c-1.8 4.4-1.2 10.3 1.2 14.1.1-3.4 2.1-5.5 5.8-6.2 4.1-1 6.8-3.1 8-6.2 2.8 1.5 4.5 5.1 5.1 11.5z" opacity="1" data-original="#333842"></path><path fill="#646b79" d="M60.2 64H3.8c.6-7.5.5-17.2 1.8-20.4 1.2-3.3 4-4.9 7.3-5.9 4-1.1 5.9-1.8 8.1-3 .3-.1.5-.3.8-.5.2-.1.5-.3.8-.6.1 0 .1-.1.2-.2.7-.7 1.5-1.6 1.9-2.4 1.3 3.5 3.6 5.8 7.2 7.6.1.1.2.1.2.1s.1 0 .1-.1c3.6-1.7 5.9-4 7.2-7.6.4.8 1.2 1.7 1.9 2.4l.2.2c.3.2.5.4.8.6s.5.3.8.4c2.2 1.2 4.1 1.9 8.1 3 3.3 1 6.1 2.6 7.3 5.9s1.1 13 1.7 20.5z" opacity="1" data-original="#646b79"></path><path fill="#dededf" d="M41.2 34.9C40.6 41.5 39 57.5 36 64h-8.1c-2.9-6.5-4.6-22.4-5.1-29 .5 1.6 1.1 3 1.8 4.4.4.7.8 1.3 1.2 2 0 0 3.6 0 6.2-2.6 2.6 2.6 6.2 2.6 6.2 2.6.4-.7.8-1.3 1.2-2 .7-1.4 1.3-2.8 1.8-4.5z" opacity="1" data-original="#dededf"></path><g fill="#59b5ac"><path d="m42.6 40.9 3 3.2c-.8 12-8.2 20-8.2 20H36l.3-.6c.2-.4.4-.9.5-1.4.2-.5.3-.9.4-1.5v-.2c.2-.8.5-1.8.7-2.7.2-.6.3-1.3.4-1.9 0-.1.1-.3.1-.4.9-4.5 1.6-9.6 2-13.9v-.1c.1-.6.1-1.2.2-1.8 0-.2 0-.3.1-.5v-.4c.1-.6.1-1.1.2-1.6s.1-1 .1-1.4V35c0-.5.1-.9.1-1.3l.2.2c.3.2.5.4.8.6s.5.3.8.4v.3c.7 2.5 4.2 3.9 4.2 3.9zM27.9 64h-1.3s-7.9-8.9-8.2-20l3-3.2-4.7-1.9s3.5-1.4 4.2-3.9v-.3c.3-.1.5-.3.8-.5.2-.1.5-.3.8-.6.1 0 .1-.1.2-.2 0 .4.1.9.1 1.4v.6c0 .2 0 .4.1.6 0 .2 0 .5.1.8.3 2.9.7 6.9 1.3 10.9.1.4.1.9.2 1.3.2 1.5.5 3 .7 4.4.1.7.3 1.4.4 2 .1.3.1.7.2 1 .1.2.1.5.2.7.3 1.3.6 2.6 1 3.7 0 .1 0 .1.1.2.1.2.1.4.2.6s.1.4.2.6c0 .8.2 1.3.4 1.8z" fill="#59b5ac" opacity="1" data-original="#59b5ac"></path></g><g fill="#a72a45"><path d="M33.4 44.8h-2.8c-.4 0-.8-.2-.9-.6-.5-1-.9-2.1-1.2-3.1-.3-.9.4-1.9 1.4-1.9H34c1 0 1.7.9 1.4 1.9-.3 1.2-.7 2-1.2 3.1-.1.3-.4.6-.8.6z" fill="#a72a45" opacity="1" data-original="#a72a45"></path><path d="M35.8 64h-7.6l2.1-19.6h3.4z" fill="#a72a45" opacity="1" data-original="#a72a45"></path></g><g fill="#f1f3f7"><path d="M39.4 31.2c.4.8 1.2 1.7 1.9 2.4l.2.2-.3 1.2v.1c-.1.4-.2.8-.4 1.1-.3.8-.6 1.5-.9 2.2-.2.4-.3.7-.5 1-.4.7-.8 1.3-1.2 2-.1 0-.7 0-1.5-.2-.2 0-.4-.1-.7-.2-.1 0-.1 0-.2-.1h-.1c-.1 0-.2-.1-.3-.1s-.2-.1-.4-.1c-.6-.2-1.3-.6-2-1-.1-.1-.3-.2-.4-.3-.3-.2-.5-.4-.8-.7s.1 0 .1-.1h.1c1.2-.4 5.6-2.8 7.4-7.4z" fill="#f1f3f7" opacity="1" data-original="#f1f3f7"></path><path d="M24.6 31.2c1.8 4.6 6.2 7 7.2 7.6.1.1.2.1.2.1-2.6 2.6-6.2 2.6-6.2 2.6-.4-.7-.8-1.3-1.2-2-.7-1.4-1.3-2.8-1.8-4.4l-.3-1.2c.1 0 .1-.1.2-.2.7-.8 1.5-1.7 1.9-2.5z" fill="#f1f3f7" opacity="1" data-original="#f1f3f7"></path></g><g fill="#4f5565"><path d="M54.7 48.4c-.6 1.3-1 2.6-1.3 4s-.5 2.8-.6 4.3c-.2 2.4-.3 4.9-.4 7.3h-1.6c.1-2.5.3-5 .7-7.5.2-1.5.4-2.9.8-4.4.3-1.5.8-2.9 1.5-4.3.1-.3.5-.4.7-.2s.3.5.2.8zM13.2 64h-1.6c-.1-2.5-.2-4.9-.4-7.3-.1-1.4-.3-2.9-.6-4.3s-.7-2.8-1.3-4c-.1-.3 0-.6.2-.7.3-.1.6 0 .7.2.7 1.4 1.2 2.8 1.5 4.3s.6 2.9.8 4.4c.4 2.4.6 4.9.7 7.4z" fill="#4f5565" opacity="1" data-original="#4f5565"></path></g></g></svg>