<svg id="_08_Cancel" enable-background="new 0 0 512 512" viewBox="0 0 512 512" xmlns="http://www.w3.org/2000/svg" xmlns:xlink="http://www.w3.org/1999/xlink"><linearGradient id="lg1"><stop offset="0" stop-color="#eaf6ff"/><stop offset=".2651" stop-color="#e5f3fe"/><stop offset=".5398" stop-color="#d9edfe"/><stop offset=".8179" stop-color="#c4e3fe"/><stop offset="1" stop-color="#b3dafe"/></linearGradient><linearGradient id="SVGID_1_" gradientTransform="matrix(1 0 0 -1 0 514)" gradientUnits="userSpaceOnUse" x1="235.313" x2="281.74" xlink:href="#lg1" y1="378.126" y2="67.728"/><linearGradient id="lg2"><stop offset="0" stop-color="#8ac9fe" stop-opacity="0"/><stop offset=".1291" stop-color="#89c8fd" stop-opacity=".019"/><stop offset=".2629" stop-color="#88c6fb" stop-opacity=".075"/><stop offset=".3989" stop-color="#87c4f8" stop-opacity=".168"/><stop offset=".5365" stop-color="#85c0f4" stop-opacity=".298"/><stop offset=".6753" stop-color="#83bbef" stop-opacity=".466"/><stop offset=".8151" stop-color="#7fb5e9" stop-opacity=".672"/><stop offset=".9532" stop-color="#7caee1" stop-opacity=".911"/><stop offset="1" stop-color="#7bacdf"/></linearGradient><linearGradient id="SVGID_00000168828656959341203550000013141679204391191437_" gradientTransform="matrix(1 0 0 -1 0 514)" gradientUnits="userSpaceOnUse" x1="256" x2="256" xlink:href="#lg2" y1="111.186" y2="70.349"/><linearGradient id="SVGID_00000013891463089886914670000015652248145652284065_" gradientTransform="matrix(1 0 0 -1 0 514)" gradientUnits="userSpaceOnUse" x1="449.85" x2="510.412" xlink:href="#lg2" y1="244.451" y2="244.451"/><linearGradient id="lg3"><stop offset="0" stop-color="#ff4565"/><stop offset=".2377" stop-color="#f53a60"/><stop offset=".6488" stop-color="#db1e54"/><stop offset="1" stop-color="#c00148"/></linearGradient><linearGradient id="SVGID_00000081631767070657125140000007510112952762293890_" gradientTransform="matrix(1 0 0 -1 0 514)" gradientUnits="userSpaceOnUse" x1="256" x2="256" xlink:href="#lg3" y1="505.959" y2="388.388"/><linearGradient id="lg4"><stop offset="0" stop-color="#c41926" stop-opacity="0"/><stop offset=".1865" stop-color="#c01926" stop-opacity=".038"/><stop offset=".3798" stop-color="#b61c26" stop-opacity=".152"/><stop offset=".5761" stop-color="#a62126" stop-opacity=".343"/><stop offset=".7747" stop-color="#8f2826" stop-opacity=".609"/><stop offset=".9732" stop-color="#713126" stop-opacity=".949"/><stop offset="1" stop-color="#6d3326"/></linearGradient><linearGradient id="SVGID_00000130630699553404034280000016879559239628486531_" gradientTransform="matrix(1 0 0 -1 0 514)" gradientUnits="userSpaceOnUse" x1="215.575" x2="174.402" xlink:href="#lg4" y1="539.198" y2="581.607"/><linearGradient id="SVGID_00000158713465498635649160000003467830742663281056_" gradientTransform="matrix(1 0 0 -1 0 514)" gradientUnits="userSpaceOnUse" x1="243.888" x2="210.949" xlink:href="#lg4" y1="523.2" y2="547.081"/><linearGradient id="SVGID_00000032632592323453861930000013599078566389517749_" gradientTransform="matrix(1 0 0 -1 0 514)" gradientUnits="userSpaceOnUse" x1="329.617" x2="296.679" xlink:href="#lg4" y1="502.434" y2="529.609"/><linearGradient id="SVGID_00000025419175549545644870000001525985290496205995_" gradientTransform="matrix(1 0 0 -1 0 514)" gradientUnits="userSpaceOnUse" x1="406.621" x2="377.388" xlink:href="#lg4" y1="482.819" y2="510.405"/><linearGradient id="SVGID_00000044177010995117171650000002413332835787697307_" gradientTransform="matrix(1 0 0 -1 0 514)" gradientUnits="userSpaceOnUse" x1="467.109" x2="509.381" xlink:href="#lg4" y1="441.029" y2="441.029"/><linearGradient id="SVGID_00000116222493484937390240000005082512666159940480_" gradientTransform="matrix(1 0 0 -1 0 514)" gradientUnits="userSpaceOnUse" x1="483.635" x2="444.52" xlink:href="#lg4" y1="452.767" y2="486.941"/><linearGradient id="SVGID_00000015320080749432258060000008581149825210509710_" gradientTransform="matrix(1 0 0 -1 0 514)" gradientUnits="userSpaceOnUse" x1="-22.94" x2="148.22" xlink:href="#lg2" y1="364.156" y2="173.397"/><linearGradient id="SVGID_00000020393894506021593460000002949727988840120507_" gradientTransform="matrix(1 0 0 -1 0 514)" gradientUnits="userSpaceOnUse" x1="84.669" x2="255.83" xlink:href="#lg2" y1="364.156" y2="173.397"/><linearGradient id="SVGID_00000048502014225685689090000016421516419102277536_" gradientTransform="matrix(1 0 0 -1 0 514)" gradientUnits="userSpaceOnUse" x1="192.279" x2="363.439" xlink:href="#lg2" y1="364.156" y2="173.397"/><linearGradient id="SVGID_00000183965873187328103070000006165602102882217856_" gradientTransform="matrix(1 0 0 -1 0 514)" gradientUnits="userSpaceOnUse" x1="299.888" x2="471.049" xlink:href="#lg2" y1="364.156" y2="173.397"/><linearGradient id="SVGID_00000123426265690082751640000004718861799632511152_" gradientTransform="matrix(1 0 0 -1 0 514)" gradientUnits="userSpaceOnUse" x1="-22.94" x2="148.22" xlink:href="#lg2" y1="266.832" y2="76.073"/><linearGradient id="SVGID_00000055692715328073260140000018020312559518700455_" gradientTransform="matrix(1 0 0 -1 0 514)" gradientUnits="userSpaceOnUse" x1="84.669" x2="255.83" xlink:href="#lg2" y1="266.832" y2="76.073"/><linearGradient id="SVGID_00000164472208901454627560000000565545147155902374_" gradientTransform="matrix(1 0 0 -1 0 514)" gradientUnits="userSpaceOnUse" x1="192.279" x2="363.439" xlink:href="#lg2" y1="266.832" y2="76.073"/><linearGradient id="SVGID_00000039838758848725208890000016709556380098646970_" gradientTransform="matrix(1 0 0 -1 0 514)" gradientUnits="userSpaceOnUse" x1="-22.94" x2="148.22" xlink:href="#lg2" y1="461.48" y2="270.721"/><linearGradient id="SVGID_00000014600995915546704780000006722259106565706166_" gradientTransform="matrix(1 0 0 -1 0 514)" gradientUnits="userSpaceOnUse" x1="84.669" x2="255.83" xlink:href="#lg2" y1="461.48" y2="270.721"/><linearGradient id="SVGID_00000079476509311152233560000017183866387503584656_" gradientTransform="matrix(1 0 0 -1 0 514)" gradientUnits="userSpaceOnUse" x1="192.279" x2="363.439" xlink:href="#lg2" y1="461.48" y2="270.721"/><linearGradient id="SVGID_00000144316233929462389690000008728000550001964732_" gradientTransform="matrix(1 0 0 -1 0 514)" gradientUnits="userSpaceOnUse" x1="299.888" x2="471.049" xlink:href="#lg2" y1="461.48" y2="270.721"/><linearGradient id="SVGID_00000160899645139290836860000006425189872052990345_" gradientTransform="matrix(1 0 0 -1 0 514)" gradientUnits="userSpaceOnUse" x1="248.2" x2="184.793" xlink:href="#lg2" y1="205.955" y2="280.067"/><linearGradient id="SVGID_00000129904816348349068540000013855243736023726231_" gradientTransform="matrix(1 0 0 -1 0 514)" gradientUnits="userSpaceOnUse" x1="505.642" x2="443.607" xlink:href="#lg2" y1="108.502" y2="115.09"/><linearGradient id="lg5"><stop offset="0" stop-color="#fef0ae"/><stop offset=".1466" stop-color="#fdeea9"/><stop offset=".2986" stop-color="#fdeb9d"/><stop offset=".4531" stop-color="#fde688"/><stop offset=".6093" stop-color="#fcdf6b"/><stop offset=".7669" stop-color="#fbd646"/><stop offset=".9233" stop-color="#facc18"/><stop offset="1" stop-color="#fac600"/></linearGradient><linearGradient id="SVGID_00000078747740985665338620000003379869207184907399_" gradientTransform="matrix(1 0 0 -1 0 514)" gradientUnits="userSpaceOnUse" x1="61.681" x2="85.661" xlink:href="#lg5" y1="487.649" y2="487.649"/><linearGradient id="SVGID_00000162315497059662441210000000831011964621572023_" gradientTransform="matrix(1 0 0 -1 0 514)" gradientUnits="userSpaceOnUse" x1="154.517" x2="178.497" xlink:href="#lg5" y1="487.649" y2="487.649"/><linearGradient id="SVGID_00000074424819007802039340000014671568504784311219_" gradientTransform="matrix(1 0 0 -1 0 514)" gradientUnits="userSpaceOnUse" x1="247.354" x2="271.333" xlink:href="#lg5" y1="487.649" y2="487.649"/><linearGradient id="SVGID_00000016760151412326483270000013204839647637827246_" gradientTransform="matrix(1 0 0 -1 0 514)" gradientUnits="userSpaceOnUse" x1="340.19" x2="364.17" xlink:href="#lg5" y1="487.649" y2="487.649"/><linearGradient id="SVGID_00000031195764237866650410000010387488900057313678_" gradientTransform="matrix(1 0 0 -1 0 514)" gradientUnits="userSpaceOnUse" x1="433.026" x2="457.006" xlink:href="#lg5" y1="487.649" y2="487.649"/><linearGradient id="SVGID_00000048468468059509246830000013982351043906706319_" gradientTransform="matrix(1 0 0 -1 0 514)" gradientUnits="userSpaceOnUse" x1="290.111" x2="411.972" xlink:href="#lg3" y1="163.59" y2="41.729"/><linearGradient id="SVGID_00000119079102080632444230000000849257547252956304_" gradientTransform="matrix(1 0 0 -1 0 514)" gradientUnits="userSpaceOnUse" x1="353.258" x2="353.258" xlink:href="#lg4" y1="85.133" y2="-4.686"/><linearGradient id="SVGID_00000065037912054606925500000005681084744015979704_" gradientTransform="matrix(0 -1 -1 0 1019.444 -190.616)" gradientUnits="userSpaceOnUse" x1="-604.173" x2="-604.173" xlink:href="#lg4" y1="650.876" y2="561.057"/><linearGradient id="SVGID_00000181050121731657045270000006294554987277326510_" gradientTransform="matrix(1 0 0 -1 0 514)" gradientUnits="userSpaceOnUse" x1="401.093" x2="427.206" y1="52.608" y2="26.495"><stop offset="0" stop-color="#fe99a0" stop-opacity="0"/><stop offset=".1207" stop-color="#fe99a0" stop-opacity=".016"/><stop offset=".2459" stop-color="#fe99a0" stop-opacity=".065"/><stop offset=".3731" stop-color="#fe99a0" stop-opacity=".147"/><stop offset=".5018" stop-color="#fe99a0" stop-opacity=".262"/><stop offset=".6317" stop-color="#fe99a0" stop-opacity=".41"/><stop offset=".7625" stop-color="#fe99a0" stop-opacity=".59"/><stop offset=".8916" stop-color="#fe99a0" stop-opacity=".8"/><stop offset="1" stop-color="#fe99a0"/></linearGradient><linearGradient id="SVGID_00000057143999150859137190000010011014360771297672_" gradientTransform="matrix(1 0 0 -1 0 514)" gradientUnits="userSpaceOnUse" x1="323.832" x2="439.967" xlink:href="#lg1" y1="193.292" y2="77.156"/><linearGradient id="SVGID_00000028282644566182234780000005044974396295876029_" gradientTransform="matrix(1 0 0 -1 0 514)" gradientUnits="userSpaceOnUse" x1="260.409" x2="376.545" xlink:href="#lg1" y1="129.869" y2="13.734"/><linearGradient id="SVGID_00000177463400672727874630000017247051434185946010_" gradientTransform="matrix(1 0 0 -1 0 514)" gradientUnits="userSpaceOnUse" x1="388.062" x2="332.465" xlink:href="#lg2" y1="129.061" y2="184.658"/><linearGradient id="SVGID_00000045605493161844680860000015940787486596376235_" gradientTransform="matrix(1 0 0 -1 0 514)" gradientUnits="userSpaceOnUse" x1="324.64" x2="269.042" xlink:href="#lg2" y1="65.639" y2="121.236"/><linearGradient id="SVGID_00000005967313927427659100000004286547798556000391_" gradientTransform="matrix(1 0 0 -1 0 514)" gradientUnits="userSpaceOnUse" x1="326.942" x2="344.29" xlink:href="#lg2" y1="74.128" y2="91.475"/><linearGradient id="lg6"><stop offset="0" stop-color="#00f2a6"/><stop offset=".2453" stop-color="#00eda3"/><stop offset=".4994" stop-color="#01e19a"/><stop offset=".7566" stop-color="#04cc8c"/><stop offset="1" stop-color="#07b27b"/></linearGradient><linearGradient id="SVGID_00000052826246995832986470000005633521895632015760_" gradientTransform="matrix(.707 .707 .707 -.707 -375.912 627.531)" gradientUnits="userSpaceOnUse" x1="43" x2="52.794" xlink:href="#lg6" y1="695.038" y2="650.614"/><linearGradient id="SVGID_00000002363320918109468270000008642736793123105697_" gradientTransform="matrix(.707 .707 .707 -.707 -375.912 627.531)" gradientUnits="userSpaceOnUse" x1="49.13" x2="45.632" xlink:href="#lg6" y1="649.958" y2="666.049"/><linearGradient id="SVGID_00000050660728302130946820000003313403312092967302_" gradientTransform="matrix(.707 .707 .707 -.707 -375.912 627.531)" gradientUnits="userSpaceOnUse" x1="164.035" x2="154.59" xlink:href="#lg6" y1="694.063" y2="651.037"/><linearGradient id="SVGID_00000178205473044745332360000010081936455943935898_" gradientTransform="matrix(.707 .707 .707 -.707 -375.912 627.531)" gradientUnits="userSpaceOnUse" x1="158.02" x2="161.169" xlink:href="#lg6" y1="649.534" y2="663.526"/><linearGradient id="lg7"><stop offset="0" stop-color="#07b27b" stop-opacity="0"/><stop offset=".1911" stop-color="#06af78" stop-opacity=".04"/><stop offset=".389" stop-color="#06a671" stop-opacity=".16"/><stop offset=".5902" stop-color="#059766" stop-opacity=".359"/><stop offset=".7936" stop-color="#038255" stop-opacity=".638"/><stop offset=".9969" stop-color="#026841" stop-opacity=".994"/><stop offset="1" stop-color="#026841"/></linearGradient><linearGradient id="SVGID_00000084518557030728451470000002921599224920510136_" gradientTransform="matrix(.707 .707 .707 -.707 -375.912 627.531)" gradientUnits="userSpaceOnUse" x1="155.85" x2="129.943" xlink:href="#lg7" y1="683.156" y2="683.156"/><linearGradient id="SVGID_00000010273837552571605210000000444886999631036310_" gradientTransform="matrix(.707 .707 .707 -.707 -375.912 627.531)" gradientUnits="userSpaceOnUse" x1="68.947" x2="75.244" xlink:href="#lg6" y1="594.852" y2="567.917"/><linearGradient id="SVGID_00000127021192339085581570000002002441438665263805_" gradientTransform="matrix(.707 .707 .707 -.707 -375.912 627.531)" gradientUnits="userSpaceOnUse" x1="138.697" x2="132.05" xlink:href="#lg6" y1="593.668" y2="570.931"/><linearGradient id="SVGID_00000021090112039032256180000000906323311433654916_" gradientTransform="matrix(.707 .707 .707 -.707 -375.912 627.531)" gradientUnits="userSpaceOnUse" x1="144.253" x2="118.718" xlink:href="#lg7" y1="586.137" y2="589.635"/><linearGradient id="SVGID_00000165223283774291531690000013574379308629712047_" gradientTransform="matrix(.707 .707 .707 -.707 -375.912 627.531)" gradientUnits="userSpaceOnUse" x1="84.141" x2="121.384" xlink:href="#lg6" y1="661.291" y2="661.291"/><linearGradient id="SVGID_00000151524561844527729060000011023601712767824300_" gradientTransform="matrix(1 0 0 -1 0 514)" gradientUnits="userSpaceOnUse" x1="211.524" x2="233.485" y1="353.937" y2="331.976"><stop offset="0" stop-color="#26a6fe"/><stop offset=".2729" stop-color="#23a1fd"/><stop offset=".5557" stop-color="#1a95fd"/><stop offset=".8419" stop-color="#0b80fb"/><stop offset="1" stop-color="#0172fb"/></linearGradient><linearGradient id="lg8"><stop offset="0" stop-color="#0182fc" stop-opacity="0"/><stop offset=".192" stop-color="#017ff5" stop-opacity=".04"/><stop offset=".391" stop-color="#0179e3" stop-opacity=".161"/><stop offset=".5932" stop-color="#016ec6" stop-opacity=".362"/><stop offset=".7966" stop-color="#015f9c" stop-opacity=".643"/><stop offset="1" stop-color="#024c67"/></linearGradient><linearGradient id="SVGID_00000116201270952176651890000014694322065353128348_" gradientTransform="matrix(1 0 0 -1 0 514)" gradientUnits="userSpaceOnUse" x1="221.831" x2="213.802" xlink:href="#lg8" y1="338.511" y2="360.127"/><linearGradient id="SVGID_00000105387337964447885400000014910139771700779684_" gradientTransform="matrix(1 0 0 -1 0 514)" gradientUnits="userSpaceOnUse" x1="220.224" x2="223.106" xlink:href="#lg8" y1="341.911" y2="356.939"/><linearGradient id="SVGID_00000127733556131020055870000018075610020467229067_" gradientTransform="matrix(.707 .707 .707 -.707 -375.912 627.531)" gradientUnits="userSpaceOnUse" x1="103.642" x2="103.642" xlink:href="#lg7" y1="590.991" y2="550.662"/><g><g><path d="m507 120.3v306.1c0 12.8-10.4 23.1-23.1 23.1h-455.8c-12.8 0-23.1-10.4-23.1-23.1v-306.1l251-40.3z" fill="url(#SVGID_1_)"/><path d="m5 317.6v108.8c0 12.8 10.3 23.1 23.1 23.1h455.8c12.8 0 23.1-10.3 23.1-23.1v-108.8z" fill="url(#SVGID_00000168828656959341203550000013141679204391191437_)"/><path d="m507 120.3v306.1c0 12.8-10.4 23.1-23.1 23.1h-167.5v-359.9z" fill="url(#SVGID_00000013891463089886914670000015652248145652284065_)"/><path d="m483.9 25.7h-455.8c-12.8 0-23.1 10.3-23.1 23.1v71.5h502v-71.5c0-12.8-10.3-23.1-23.1-23.1z" fill="url(#SVGID_00000081631767070657125140000007510112952762293890_)"/><path d="m483.9 25.7h-426.5v21.7l72.9 72.9h376.7v-71.5c0-12.8-10.3-23.1-23.1-23.1z" fill="url(#SVGID_00000130630699553404034280000016879559239628486531_)"/><path d="m483.9 25.7h-333.7v21.7l72.9 72.9h283.9v-71.5c0-12.8-10.3-23.1-23.1-23.1z" fill="url(#SVGID_00000158713465498635649160000003467830742663281056_)"/><path d="m483.9 25.7h-240.9v21.7l72.9 72.9h191.1v-71.5c0-12.8-10.3-23.1-23.1-23.1z" fill="url(#SVGID_00000032632592323453861930000013599078566389517749_)"/><path d="m483.9 25.7h-148v21.7l72.9 72.9h98.2v-71.5c0-12.8-10.3-23.1-23.1-23.1z" fill="url(#SVGID_00000025419175549545644870000001525985290496205995_)"/><path d="m483.9 25.7h-109.9v94.6h133v-71.5c0-12.8-10.3-23.1-23.1-23.1z" fill="url(#SVGID_00000044177010995117171650000002413332835787697307_)"/><path d="m483.9 25.7h-55.2v21.7l72.9 72.9h5.4v-71.5c0-12.8-10.3-23.1-23.1-23.1z" fill="url(#SVGID_00000116222493484937390240000005082512666159940480_)"/><g><path d="m72.1 246.5h45.1c6.5 0 11.8 5.3 11.8 11.8v45.1c0 6.5-5.3 11.8-11.8 11.8h-45.1c-6.5 0-11.8-5.3-11.8-11.8v-45.1c0-6.5 5.3-11.8 11.8-11.8z" fill="url(#SVGID_00000015320080749432258060000008581149825210509710_)"/><path d="m179.7 246.5h45.1c6.5 0 11.8 5.3 11.8 11.8v45.1c0 6.5-5.3 11.8-11.8 11.8h-45.1c-6.5 0-11.8-5.3-11.8-11.8v-45.1c0-6.5 5.3-11.8 11.8-11.8z" fill="url(#SVGID_00000020393894506021593460000002949727988840120507_)"/><path d="m287.3 246.5h45.1c6.5 0 11.8 5.3 11.8 11.8v45.1c0 6.5-5.3 11.8-11.8 11.8h-45.1c-6.5 0-11.8-5.3-11.8-11.8v-45.1c0-6.5 5.3-11.8 11.8-11.8z" fill="url(#SVGID_00000048502014225685689090000016421516419102277536_)"/><path d="m394.9 246.5h45.1c6.5 0 11.8 5.3 11.8 11.8v45.1c0 6.5-5.3 11.8-11.8 11.8h-45.1c-6.5 0-11.8-5.3-11.8-11.8v-45.1c0-6.5 5.3-11.8 11.8-11.8z" fill="url(#SVGID_00000183965873187328103070000006165602102882217856_)"/><path d="m72.1 343.9h45.1c6.5 0 11.8 5.3 11.8 11.8v45.1c0 6.5-5.3 11.8-11.8 11.8h-45.1c-6.5 0-11.8-5.3-11.8-11.8v-45.1c0-6.6 5.3-11.8 11.8-11.8z" fill="url(#SVGID_00000123426265690082751640000004718861799632511152_)"/><path d="m179.7 343.9h45.1c6.5 0 11.8 5.3 11.8 11.8v45.1c0 6.5-5.3 11.8-11.8 11.8h-45.1c-6.5 0-11.8-5.3-11.8-11.8v-45.1c0-6.6 5.3-11.8 11.8-11.8z" fill="url(#SVGID_00000055692715328073260140000018020312559518700455_)"/><path d="m287.3 343.9h45.1c6.5 0 11.8 5.3 11.8 11.8v45.1c0 6.5-5.3 11.8-11.8 11.8h-45.1c-6.5 0-11.8-5.3-11.8-11.8v-45.1c0-6.6 5.3-11.8 11.8-11.8z" fill="url(#SVGID_00000164472208901454627560000000565545147155902374_)"/><path d="m72.1 149.2h45.1c6.5 0 11.8 5.3 11.8 11.8v45c0 6.5-5.3 11.8-11.8 11.8h-45.1c-6.5 0-11.8-5.3-11.8-11.8v-45c0-6.5 5.3-11.8 11.8-11.8z" fill="url(#SVGID_00000039838758848725208890000016709556380098646970_)"/><path d="m179.7 149.2h45.1c6.5 0 11.8 5.3 11.8 11.8v45c0 6.5-5.3 11.8-11.8 11.8h-45.1c-6.5 0-11.8-5.3-11.8-11.8v-45c0-6.5 5.3-11.8 11.8-11.8z" fill="url(#SVGID_00000014600995915546704780000006722259106565706166_)"/><path d="m287.3 149.2h45.1c6.5 0 11.8 5.3 11.8 11.8v45c0 6.5-5.3 11.8-11.8 11.8h-45.1c-6.5 0-11.8-5.3-11.8-11.8v-45c0-6.5 5.3-11.8 11.8-11.8z" fill="url(#SVGID_00000079476509311152233560000017183866387503584656_)"/><path d="m394.9 149.2h45.1c6.5 0 11.8 5.3 11.8 11.8v45c0 6.5-5.3 11.8-11.8 11.8h-45.1c-6.5 0-11.8-5.3-11.8-11.8v-45c0-6.5 5.3-11.8 11.8-11.8z" fill="url(#SVGID_00000144316233929462389690000008728000550001964732_)"/></g></g><path d="m507 426.4v-3.7l-266-266-152.2 152.9 139.9 139.9h255.2c12.8 0 23.1-10.4 23.1-23.1z" fill="url(#SVGID_00000160899645139290836860000006425189872052990345_)"/><path d="m422.9 343.9v105.5h61c12.2 0 22.2-9.5 23-21.5z" fill="url(#SVGID_00000129904816348349068540000013855243736023726231_)"/><g><path d="m70.3 0c10.2 0 18.5 8.3 18.5 18.5v15.6c0 10.2-8.3 18.5-18.5 18.5-10.2 0-18.5-8.3-18.5-18.5v-15.6c0-10.2 8.3-18.5 18.5-18.5z" fill="url(#SVGID_00000078747740985665338620000003379869207184907399_)"/><path d="m163.2 0c10.2 0 18.5 8.3 18.5 18.5v15.6c0 10.2-8.3 18.5-18.5 18.5-10.2 0-18.5-8.3-18.5-18.5v-15.6c-.1-10.2 8.2-18.5 18.5-18.5z" fill="url(#SVGID_00000162315497059662441210000000831011964621572023_)"/><path d="m256 0c10.2 0 18.5 8.3 18.5 18.5v15.6c0 10.2-8.3 18.5-18.5 18.5-10.2 0-18.5-8.3-18.5-18.5v-15.6c0-10.2 8.3-18.5 18.5-18.5z" fill="url(#SVGID_00000074424819007802039340000014671568504784311219_)"/><path d="m348.8 0c10.2 0 18.5 8.3 18.5 18.5v15.6c0 10.2-8.3 18.5-18.5 18.5-10.2 0-18.5-8.3-18.5-18.5v-15.6c0-10.2 8.3-18.5 18.5-18.5z" fill="url(#SVGID_00000016760151412326483270000013204839647637827246_)"/><path d="m441.7 0c10.2 0 18.5 8.3 18.5 18.5v15.6c0 10.2-8.3 18.5-18.5 18.5-10.2 0-18.5-8.3-18.5-18.5v-15.6c-.1-10.2 8.2-18.5 18.5-18.5z" fill="url(#SVGID_00000031195764237866650410000010387488900057313678_)"/></g><g><g><circle cx="353.3" cy="413.6" fill="url(#SVGID_00000048468468059509246830000013982351043906706319_)" r="98.4"/><path d="m254.8 413.6c0 54.4 44.1 98.4 98.4 98.4 54.4 0 98.4-44.1 98.4-98.4 0-7.1-.8-14-2.2-20.6h-192.4c-1.4 6.6-2.2 13.5-2.2 20.6z" fill="url(#SVGID_00000119079102080632444230000000849257547252956304_)"/><path d="m353.3 512c54.4 0 98.4-44.1 98.4-98.4 0-54.4-44.1-98.4-98.4-98.4-7.1 0-14 .8-20.6 2.2v192.5c6.6 1.3 13.5 2.1 20.6 2.1z" fill="url(#SVGID_00000065037912054606925500000005681084744015979704_)"/><path d="m283.6 483.2c38.4 38.4 100.8 38.4 139.2 0s38.4-100.8 0-139.2c-5-5-10.4-9.3-16.1-13l-136.1 136c3.7 5.7 8 11.2 13 16.2z" fill="url(#SVGID_00000181050121731657045270000006294554987277326510_)"/></g><g><path d="m415.9 458.1c9-12.6 14.3-28 14.3-44.6 0-42.5-34.4-76.9-76.9-76.9-16.6 0-32 5.3-44.6 14.3z" fill="url(#SVGID_00000057143999150859137190000010011014360771297672_)"/><path d="m290.6 369c-9 12.6-14.3 28-14.3 44.6 0 42.5 34.4 76.9 76.9 76.9 16.6 0 32-5.3 44.6-14.3z" fill="url(#SVGID_00000028282644566182234780000005044974396295876029_)"/></g><g><path d="m415.9 458.1c9-12.6 14.3-28 14.3-44.6 0-42.5-34.4-76.9-76.9-76.9-16.6 0-32 5.3-44.6 14.3z" fill="url(#SVGID_00000177463400672727874630000017247051434185946010_)"/><path d="m290.6 369c-9 12.6-14.3 28-14.3 44.6 0 42.5 34.4 76.9 76.9 76.9 16.6 0 32-5.3 44.6-14.3z" fill="url(#SVGID_00000045605493161844680860000015940787486596376235_)"/><path d="m290.6 369c-9 12.6-14.3 28-14.3 44.6 0 42.5 34.4 76.9 76.9 76.9 16.6 0 32-5.3 44.6-14.3z" fill="url(#SVGID_00000005967313927427659100000004286547798556000391_)"/></g></g><g><g><g><path d="m168.3 232.4-84.2-54.8c-3.7-2.4-4.8-7.2-2.6-11 6.4-11.1 19.7-16 31.8-11.8l83.1 29.1z" fill="url(#SVGID_00000052826246995832986470000005633521895632015760_)"/><path d="m161.8 228.2-77.7-50.6c-3.1-2-4.4-5.8-3.4-9.2 4.1-.8 9.5.4 15.3 3.7l71.1 41.1z" fill="url(#SVGID_00000002363320918109468270000008642736793123105697_)"/><path d="m165.8 229.9 54.8 84.2c2.4 3.7 7.2 4.8 11 2.6 11.1-6.4 16-19.7 11.8-31.8l-29.1-83.1z" fill="url(#SVGID_00000050660728302130946820000003313403312092967302_)"/><path d="m229.8 317.5c-3.4 1-7.2-.3-9.2-3.4l-50.6-77.7 15-5.2 41.1 71.1c3.4 5.7 4.6 11.1 3.7 15.2z" fill="url(#SVGID_00000178205473044745332360000010081936455943935898_)"/><path d="m237.1 267-22.8-65.1-48.5 28 42.8 65.7z" fill="url(#SVGID_00000084518557030728451470000002921599224920510136_)"/></g><g><path d="m103.5 291.9-39.5-25.7c-3.7-2.4-4.8-7.2-2.6-11l2.9-5c2-3.4 6.1-4.9 9.8-3.6l46.2 16.2z" fill="url(#SVGID_00000010273837552571605210000000444886999631036310_)"/><path d="m106.3 294.7 25.7 39.5c2.4 3.7 7.2 4.8 11 2.6l5-2.9c3.4-2 4.9-6.1 3.6-9.8l-16.2-46.2z" fill="url(#SVGID_00000127021192339085581570000002002441438665263805_)"/><path d="m106.3 294.7 25.7 39.5c2.4 3.7 7.2 4.8 11 2.6l5-2.9c3.4-2 4.9-6.1 3.6-9.8l-16.2-46.2z" fill="url(#SVGID_00000021090112039032256180000000906323311433654916_)"/></g><path d="m241.5 157.2c-.2-.2-.4-.4-.6-.6-12.9-12.8-37.4-8.6-54 9-37.8 40.1-75.9 86-98.6 123.1-4.6 7.5-4.5 15.8.3 20.6.1.1.1.1.2.2 4.8 4.8 13.1 4.9 20.6.3 37.2-22.7 83.1-60.9 123.1-98.6 17.7-16.6 21.8-41.1 9-54z" fill="url(#SVGID_00000165223283774291531690000013574379308629712047_)"/><g><path d="m217.9 179.6.7.7c4.6 4.7 8 10.1 10 15.9 1 3 5.2 3.3 6.7.5 6.7-12.4 7.1-25.5-.4-33-.2-.2-.3-.3-.5-.5-7.5-7.4-20.6-7.1-33-.4-2.8 1.5-2.5 5.6.5 6.7 5.8 2.1 11.3 5.4 16 10.1z" fill="url(#SVGID_00000151524561844527729060000011023601712767824300_)"/><path d="m217.9 179.6.7.7c4.6 4.7 8 10.1 10 15.9 1 3 5.2 3.3 6.7.5 6.7-12.4 7.1-25.5-.4-33-.2-.2-.3-.3-.5-.5-7.5-7.4-20.6-7.1-33-.4-2.8 1.5-2.5 5.6.5 6.7 5.8 2.1 11.3 5.4 16 10.1z" fill="url(#SVGID_00000116201270952176651890000014694322065353128348_)"/><path d="m217.9 179.6.7.7c4.6 4.7 8 10.1 10 15.9 1 3 5.2 3.3 6.7.5 6.7-12.4 7.1-25.5-.4-33-.2-.2-.3-.3-.5-.5-7.5-7.4-20.6-7.1-33-.4-2.8 1.5-2.5 5.6.5 6.7 5.8 2.1 11.3 5.4 16 10.1z" fill="url(#SVGID_00000105387337964447885400000014910139771700779684_)"/></g></g><path d="m116.9 247.6c-10.9 14.4-20.7 28.3-28.5 41.2-4.6 7.5-4.5 15.8.3 20.6l.2.2c4.8 4.8 13.1 4.9 20.6.3 12.9-7.9 26.8-17.6 41.2-28.5z" fill="url(#SVGID_00000127733556131020055870000018075610020467229067_)"/></g></g></svg>