<svg xmlns="http://www.w3.org/2000/svg" version="1.1" xmlns:xlink="http://www.w3.org/1999/xlink" width="26px" height="26px" x="0" y="0" viewBox="0 0 100 100" style="enable-background:new 0 0 512 512" xml:space="preserve" class=""><g><path d="M94.53 42.59h-6.27l-4.58-15.28c-1.52-5.07-6.09-8.47-11.38-8.47H61.88c0-3.27-2.66-5.93-5.94-5.93H44.06c-3.28 0-5.94 2.66-5.94 5.93H27.7c-5.29 0-9.86 3.4-11.38 8.47l-4.58 15.28H5.47a2.97 2.97 0 0 0-2.97 2.97c0 3.09 2.7 5.8 5.94 7.39v31.17a2.97 2.97 0 0 0 2.97 2.97h5.93a2.97 2.97 0 0 0 2.97-2.97v-5.9h59.38v5.9a2.97 2.97 0 0 0 2.97 2.97h5.93a2.97 2.97 0 0 0 2.97-2.97V52.95c3.24-1.59 5.94-4.3 5.94-7.39a2.97 2.97 0 0 0-2.97-2.97zm-75.67-3.06 3.15-10.52a5.95 5.95 0 0 1 5.69-4.23h44.6a5.95 5.95 0 0 1 5.69 4.23l3.15 10.52c.46 1.52-.68 3.06-2.28 3.06H21.14c-1.6 0-2.74-1.54-2.28-3.06zm10.36 26.81h-8.91a5.93 5.93 0 0 1-5.93-5.93c0-3.28 2.65-5.94 5.93-5.94 4.95 0 11.88 3.96 11.88 8.91 0 1.63-1.33 2.96-2.97 2.96zm31.08 4.27c0 .78-.63 1.41-1.41 1.41H41.11c-.78 0-1.41-.63-1.41-1.41v-3.7c0-.78.63-1.41 1.41-1.41h17.78c.78 0 1.41.63 1.41 1.41zm19.39-4.27h-8.91c-1.64 0-2.97-1.33-2.97-2.96 0-4.95 6.93-8.91 11.88-8.91 3.28 0 5.93 2.66 5.93 5.94a5.93 5.93 0 0 1-5.93 5.93z" fill="#8b8b8b" opacity="1" data-original="#000000" class=""></path></g></svg>