<svg xmlns="http://www.w3.org/2000/svg" version="1.1" xmlns:xlink="http://www.w3.org/1999/xlink" width="24px" height="24px" x="0" y="0" viewBox="0 0 24 24" style="enable-background:new 0 0 512 512" xml:space="preserve" class=""><g><path fill="#ff9f43" fill-rule="evenodd" d="M12 3.5a3.375 3.375 0 1 0 0 6.75 3.375 3.375 0 0 0 0-6.75zM7.123 6.875a4.875 4.875 0 1 1 9.75 0 4.875 4.875 0 0 1-9.75 0zM3.938 19a5.75 5.75 0 0 1 5.75-5.75h4.624a5.75 5.75 0 0 1 5.75 5.75v.25a2.75 2.75 0 0 1-2.75 2.75H6.688a2.75 2.75 0 0 1-2.75-2.75zm5.75-4.25A4.25 4.25 0 0 0 5.438 19v.25c0 .69.56 1.25 1.25 1.25h10.624c.69 0 1.25-.56 1.25-1.25V19a4.25 4.25 0 0 0-4.25-4.25z" clip-rule="evenodd" opacity="1" data-original="#000000"></path></g></svg>