<svg xmlns="http://www.w3.org/2000/svg" version="1.1" xmlns:xlink="http://www.w3.org/1999/xlink" width="50px" height="50px" x="0" y="0" viewBox="0 0 30 30" style="enable-background:new 0 0 512 512" xml:space="preserve" class=""><g><path d="M21.321 15.719c-3.01.072-3.015 4.484-.006 4.564 3.01-.073 3.014-4.483.006-4.564zm-.785 2.285c.001-1.024 1.558-1.028 1.564-.004-.004 1.021-1.556 1.025-1.564.004zM15.32 14.281c3.009-.076 3.009-4.488 0-4.564-3.01.077-3.008 4.486 0 4.564zm0-3.063c1.023.004 1.023 1.56 0 1.564-1.023-.005-1.022-1.558 0-1.564zM23.19 10.138a.753.753 0 0 0-1.064-.002l-8.69 8.649a.75.75 0 1 0 1.058 1.063l8.691-8.648a.75.75 0 0 0 .005-1.062zM8.852 10.537a.75.75 0 0 0-.75.75v1.923a.75.75 0 0 0 1.5 0v-1.923a.75.75 0 0 0-.75-.75zM8.852 16.041a.75.75 0 0 0-.75.75v1.922a.75.75 0 0 0 1.5 0v-1.922a.75.75 0 0 0-.75-.75z" fill="#1c8d2b" opacity="1" data-original="#000000"></path><path d="M28.379 12.522a2.6 2.6 0 0 0 1.371-2.3V7.65a2.62 2.62 0 0 0-2.617-2.617H2.867A2.62 2.62 0 0 0 .25 7.65v2.57a2.6 2.6 0 0 0 1.371 2.3 2.812 2.812 0 0 1 0 4.958A2.6 2.6 0 0 0 .25 19.78v2.57a2.62 2.62 0 0 0 2.617 2.617h24.266a2.62 2.62 0 0 0 2.617-2.617v-2.57a2.6 2.6 0 0 0-1.371-2.3c-1.964-.983-1.949-3.975 0-4.958zm-2.47 4.512a4.307 4.307 0 0 0 1.764 1.764c.359.194.581.57.577.978v2.57a1.118 1.118 0 0 1-1.117 1.117H9.6c-.041-.65.258-1.894-.75-1.919-1.009.024-.709 1.274-.75 1.923H2.867A1.118 1.118 0 0 1 1.75 22.35v-2.57a1.099 1.099 0 0 1 .577-.978 4.311 4.311 0 0 0 0-7.6 1.099 1.099 0 0 1-.577-.978V7.65c.001-.617.5-1.116 1.117-1.117H8.1c.041.651-.26 1.898.75 1.923 1.009-.024.709-1.274.75-1.923h17.533c.617.001 1.116.5 1.117 1.117v2.57c.004.408-.218.784-.577.978a4.31 4.31 0 0 0-1.764 5.836z" fill="#1c8d2b" opacity="1" data-original="#000000"></path></g></svg>