<svg xmlns="http://www.w3.org/2000/svg" version="1.1" xmlns:xlink="http://www.w3.org/1999/xlink" width="512" height="512" x="0" y="0" viewBox="0 0 682.667 682.667" style="enable-background:new 0 0 512 512" xml:space="preserve" class=""><g><defs><clipPath id="a" clipPathUnits="userSpaceOnUse"><path d="M0 512h512V0H0Z" fill="#000000" opacity="1" data-original="#000000"></path></clipPath></defs><g clip-path="url(#a)" transform="matrix(1.33333 0 0 -1.33333 0 682.667)"><path d="M0 0c0 44.281 36.216 80.104 80.643 79.464 43.035-.619 78.028-35.912 78.3-78.95.153-24.103-10.427-45.735-27.24-60.407-1.774-1.548-1.518-4.375.508-5.573l14.975-8.861c2.42-1.432 1.405-5.144-1.409-5.143l-67.809.017C34.771-78.65 0-43.388 0 0" style="fill-opacity:1;fill-rule:nonzero;stroke:none" transform="translate(7.5 425.027)" fill="#7acaa6" data-original="#7acaa6"></path><path d="m0 0-14.975 8.86c-2.015 1.193-2.296 4.015-.53 5.554 17.004 14.829 27.64 36.775 27.254 61.197-.667 42.245-34.858 76.923-77.091 78.154a80.119 80.119 0 0 1-17.468-1.399c36.505-6.998 64.326-39.175 64.568-77.526.117-18.572-6.139-35.678-16.708-49.264-6.382-8.203-4.308-20.098 4.638-25.391L-30 0c2.395-1.417 1.424-5.057-1.319-5.136l29.911-.008C1.405-5.144 2.421-1.433 0 0" style="fill-opacity:1;fill-rule:nonzero;stroke:none" transform="translate(154.685 350.7)" fill="#57be92" data-original="#57be92"></path><path d="M0 0h-180.285c-45.029 0-69.67 52.476-40.911 87.125l1.599 1.926a85.042 85.042 0 0 1 19.605 54.315v34.767c0 60.935 49.398 110.333 110.334 110.333 60.935 0 110.334-49.398 110.334-110.333v-35.94a85.048 85.048 0 0 1 19.992-54.779C69.787 52.836 45.206 0 0 0" style="fill-opacity:1;fill-rule:nonzero;stroke:none" transform="translate(394.73 216.034)" fill="#c59191" data-original="#c59191"></path><path d="M0 0v119.186c0 26.325-15.519 50.176-39.587 60.841l-80.749 34.61a41.77 41.77 0 0 0-25.315 38.393v7.315h-78.524v-7.713a41.77 41.77 0 0 0-25.115-38.307l-79.804-34.697c-24.681-10.388-40.732-34.557-40.732-61.336V0" style="fill-opacity:1;fill-rule:nonzero;stroke:none" transform="translate(489.5 7.5)" fill="#ffffff" data-original="#ffffff"></path><path d="M0 0a286.29 286.29 0 0 1 86.924-11.943 286.227 286.227 0 0 1 82.051 13.526l9.735 23.183-29.646 12.706a41.77 41.77 0 0 0-25.315 38.393v7.315H45.227v-7.713A41.772 41.772 0 0 0 20.11 37.16L-3.9 26.721Z" style="fill-opacity:1;fill-rule:nonzero;stroke:none" transform="translate(220.1 184.665)" fill="#ffcebf" data-original="#ffcebf"></path><path d="m0 0-60.827 26.071-.011-.001v-206.097H39.587v119.186C39.587-34.516 24.068-10.665 0 0" style="fill-opacity:1;fill-rule:nonzero;stroke:none" transform="translate(449.913 187.527)" fill="#8795de" data-original="#8795de"></path><path d="m0 0 60.828 26.071.011-.001v-206.097H-39.587v119.186C-39.587-34.516-24.068-10.665 0 0" style="fill-opacity:1;fill-rule:nonzero;stroke:none" transform="translate(159.26 187.527)" fill="#8795de" data-original="#8795de"></path><path d="M0 0h-17.576c-8 0-14.486 6.485-14.486 14.485 0 8 6.486 14.486 14.486 14.486H0c8 0 14.485-6.486 14.485-14.486S8 0 0 0" style="fill-opacity:1;fill-rule:nonzero;stroke:none" transform="translate(326.894 283.84)" fill="#ffffff" data-original="#ffffff"></path><path d="M0 0h-17.576c-8 0-14.486 6.485-14.486 14.485 0 8 6.486 14.486 14.486 14.486H0c8 0 14.485-6.486 14.485-14.486S8 0 0 0Z" style="stroke-width:15;stroke-linecap:round;stroke-linejoin:round;stroke-miterlimit:10;stroke-dasharray:none;stroke-opacity:1" transform="translate(326.894 283.84)" fill="none" stroke="#000000" stroke-width="15" stroke-linecap="round" stroke-linejoin="round" stroke-miterlimit="10" stroke-dasharray="none" stroke-opacity="" data-original="#000000"></path><path d="M0 0a7.243 7.243 0 1 0-14.487 0A7.243 7.243 0 0 0 0 0" style="fill-opacity:1;fill-rule:nonzero;stroke:none" transform="translate(311.83 131.263)" fill="#000000" data-original="#000000"></path><path d="M0 0a66.036 66.036 0 0 1 25.489 5.088 41.764 41.764 0 0 0-13.446 30.695v7.315h-78.522v-7.713a41.68 41.68 0 0 0-3.659-17.078C-58.247 6.973-42.161 0-24.437 0Z" style="fill-opacity:1;fill-rule:nonzero;stroke:none" transform="translate(331.806 224.747)" fill="#ffb09e" data-original="#ffb09e"></path><path d="M0 0v-64.959c0-36.596-29.667-66.263-66.263-66.263H-90.7c-36.596 0-66.262 29.667-66.262 66.263V0c0 23.807 19.299 43.107 43.107 43.107h70.748C-19.3 43.107 0 23.807 0 0" style="fill-opacity:1;fill-rule:nonzero;stroke:none" transform="translate(383.068 385.969)" fill="#ffcebf" data-original="#ffcebf"></path><path d="M0 0h-17.576c-8 0-14.486 6.485-14.486 14.485 0 8 6.486 14.486 14.486 14.486H0c8 0 14.485-6.486 14.485-14.486S8 0 0 0" style="fill-opacity:1;fill-rule:nonzero;stroke:none" transform="translate(326.894 283.84)" fill="#685e68" data-original="#685e68"></path><path d="M0 0c1.683 21.225 22.003 35.311 41.45 42.605C73.622 23.329 95.159-11.87 95.159-52.102v-7.586a92.188 92.188 0 0 0-5.298-.961c-10.714-1.6-19.838-.908-26.07 0C23.625-55.298-2.032-25.634 0 0" style="fill-opacity:1;fill-rule:nonzero;stroke:none" transform="translate(320.246 446.269)" fill="#b98080" data-original="#b98080"></path><path d="M0 0c24.918 0 47.903-8.264 66.374-22.195C57.16-38.228 36.003-69.926-3.671-93.394c-29.452-17.421-57.223-23.275-74.325-25.486h-32.338v8.547C-110.334-49.398-60.936 0 0 0" style="fill-opacity:1;fill-rule:nonzero;stroke:none" transform="translate(305.071 504.5)" fill="#c59191" data-original="#c59191"></path><path d="M0 0h-240.085l-13.242 124.918c-.94 8.861 6.006 16.582 14.916 16.582H-1.674c8.91 0 15.856-7.721 14.916-16.582z" style="fill-opacity:1;fill-rule:nonzero;stroke:none" transform="translate(428.408 7.5)" fill="#efedef" data-original="#efedef"></path><path d="M0 0h-30c8.91 0 15.855-7.721 14.916-16.581L-28.326-141.5h30L14.916-16.581C15.855-7.721 8.91 0 0 0" style="fill-opacity:1;fill-rule:nonzero;stroke:none" transform="translate(426.734 149)" fill="#e5e1e5" data-original="#e5e1e5"></path><path d="M0 0h-497a7.5 7.5 0 0 0-7.5 7.5A7.5 7.5 0 0 0-497 15H0a7.5 7.5 0 0 0 7.5-7.5A7.5 7.5 0 0 0 0 0" style="fill-opacity:1;fill-rule:nonzero;stroke:none" transform="translate(504.5)" fill="#c9bfc8" data-original="#c9bfc8"></path><path d="M0 0c0-11.598-9.401-21-21-21-11.598 0-21 9.402-21 21s9.402 21 21 21C-9.401 21 0 11.598 0 0" style="fill-opacity:1;fill-rule:nonzero;stroke:none" transform="translate(329.365 78.25)" fill="#c9bfc8" data-original="#c9bfc8"></path><path d="M0 0c0 44.281 36.216 80.104 80.643 79.464 43.035-.619 78.028-35.912 78.3-78.95.153-24.103-10.427-45.735-27.24-60.407-1.774-1.548-1.518-4.375.508-5.573l14.975-8.861c2.42-1.432 1.405-5.144-1.409-5.143l-67.809.017C34.771-78.65 0-43.388 0 0Z" style="stroke-width:15;stroke-linecap:round;stroke-linejoin:round;stroke-miterlimit:10;stroke-dasharray:none;stroke-opacity:1" transform="translate(7.5 425.027)" fill="none" stroke="#000000" stroke-width="15" stroke-linecap="round" stroke-linejoin="round" stroke-miterlimit="10" stroke-dasharray="none" stroke-opacity="" data-original="#000000"></path><path d="M0 0h11.311C43.021 0 64.58 26 64.58 53.45c0 11.69-3.91 23.64-12.6 33.97a85.038 85.038 0 0 0-19.99 54.78v35.94c0 30.47-12.35 58.05-32.32 78.01-19.97 19.97-47.55 32.32-78.02 32.32-60.93 0-110.33-49.4-110.33-110.33v-34.77c0-19.84-6.94-39.05-19.61-54.32l-1.6-1.92C-238.65 52.48-214 0-168.979 0h12.429" style="stroke-width:15;stroke-linecap:round;stroke-linejoin:round;stroke-miterlimit:10;stroke-dasharray:none;stroke-opacity:1" transform="translate(383.42 216.03)" fill="none" stroke="#000000" stroke-width="15" stroke-linecap="round" stroke-linejoin="round" stroke-miterlimit="10" stroke-dasharray="none" stroke-opacity="" data-original="#000000"></path><path d="M0 0v88.29c0 26.78 16.05 50.95 40.74 61.34l66.46 28.9 13.34 5.8a41.766 41.766 0 0 1 25.12 38.3v.37" style="stroke-width:15;stroke-linecap:round;stroke-linejoin:round;stroke-miterlimit:10;stroke-dasharray:none;stroke-opacity:1" transform="translate(119.67 37.5)" fill="none" stroke="#000000" stroke-width="15" stroke-linecap="round" stroke-linejoin="round" stroke-miterlimit="10" stroke-dasharray="none" stroke-opacity="" data-original="#000000"></path><path d="M0 0c.011-16.7 9.971-31.78 25.311-38.36l14.259-6.11 66.491-28.5c24.07-10.67 39.589-34.52 39.589-60.84V-253" style="stroke-width:15;stroke-linecap:round;stroke-linejoin:round;stroke-miterlimit:10;stroke-dasharray:none;stroke-opacity:1" transform="translate(343.85 260.5)" fill="none" stroke="#000000" stroke-width="15" stroke-linecap="round" stroke-linejoin="round" stroke-miterlimit="10" stroke-dasharray="none" stroke-opacity="" data-original="#000000"></path><path d="M0 0v64.6" style="stroke-width:15;stroke-linecap:round;stroke-linejoin:round;stroke-miterlimit:10;stroke-dasharray:none;stroke-opacity:1" transform="translate(389.07 149)" fill="none" stroke="#000000" stroke-width="15" stroke-linecap="round" stroke-linejoin="round" stroke-miterlimit="10" stroke-dasharray="none" stroke-opacity="" data-original="#000000"></path><path d="M0 0v64.08" style="stroke-width:15;stroke-linecap:round;stroke-linejoin:round;stroke-miterlimit:10;stroke-dasharray:none;stroke-opacity:1" transform="translate(220.1 149)" fill="none" stroke="#000000" stroke-width="15" stroke-linecap="round" stroke-linejoin="round" stroke-miterlimit="10" stroke-dasharray="none" stroke-opacity="" data-original="#000000"></path><path d="M0 0a286.29 286.29 0 0 1 86.924-11.943 286.277 286.277 0 0 1 82.052 13.526" style="stroke-width:15;stroke-linecap:round;stroke-linejoin:round;stroke-miterlimit:10;stroke-dasharray:none;stroke-opacity:1" transform="translate(220.1 184.665)" fill="none" stroke="#000000" stroke-width="15" stroke-linecap="round" stroke-linejoin="round" stroke-miterlimit="10" stroke-dasharray="none" stroke-opacity="" data-original="#000000"></path><path d="M0 0v-64.75c0-36.6-29.67-66.26-66.261-66.26H-90.7c-36.601 0-66.26 29.66-66.26 66.26V-.14" style="stroke-width:15;stroke-linecap:round;stroke-linejoin:round;stroke-miterlimit:10;stroke-dasharray:none;stroke-opacity:1" transform="translate(383.07 385.76)" fill="none" stroke="#000000" stroke-width="15" stroke-linecap="round" stroke-linejoin="round" stroke-miterlimit="10" stroke-dasharray="none" stroke-opacity="" data-original="#000000"></path><path d="M0 0c-2.29-5.821-7.679-17.162-19.387-26.82-8.416-6.942-16.841-10.328-22.301-12.026" style="stroke-width:15;stroke-linecap:round;stroke-linejoin:round;stroke-miterlimit:10;stroke-dasharray:none;stroke-opacity:1" transform="translate(383.068 337.172)" fill="none" stroke="#000000" stroke-width="15" stroke-linecap="round" stroke-linejoin="round" stroke-miterlimit="10" stroke-dasharray="none" stroke-opacity="" data-original="#000000"></path><path d="M0 0h-17.576c-8 0-14.486 6.485-14.486 14.485 0 8 6.486 14.486 14.486 14.486H0c8 0 14.485-6.486 14.485-14.486S8 0 0 0Z" style="stroke-width:15;stroke-linecap:round;stroke-linejoin:round;stroke-miterlimit:10;stroke-dasharray:none;stroke-opacity:1" transform="translate(326.894 283.84)" fill="none" stroke="#000000" stroke-width="15" stroke-linecap="round" stroke-linejoin="round" stroke-miterlimit="10" stroke-dasharray="none" stroke-opacity="" data-original="#000000"></path><path d="M0 0c10.408-8.064 23.928-14.112 39.744-16.381.319-.05.64-.099.97-.14 6.229-.91 15.349-1.6 26.07 0 1.75.26 3.52.59 5.3.96" style="stroke-width:15;stroke-linecap:round;stroke-linejoin:round;stroke-miterlimit:10;stroke-dasharray:none;stroke-opacity:1" transform="translate(343.326 402.14)" fill="none" stroke="#000000" stroke-width="15" stroke-linecap="round" stroke-linejoin="round" stroke-miterlimit="10" stroke-dasharray="none" stroke-opacity="" data-original="#000000"></path><path d="M0 0c-9.214-16.033-30.371-47.731-70.045-71.199-29.452-17.422-57.223-23.276-74.325-25.487h-32.338" style="stroke-width:15;stroke-linecap:round;stroke-linejoin:round;stroke-miterlimit:10;stroke-dasharray:none;stroke-opacity:1" transform="translate(371.445 482.305)" fill="none" stroke="#000000" stroke-width="15" stroke-linecap="round" stroke-linejoin="round" stroke-miterlimit="10" stroke-dasharray="none" stroke-opacity="" data-original="#000000"></path><path d="m0 0-13.242 124.918c-.94 8.861 6.006 16.582 14.916 16.582h236.737c8.91 0 15.856-7.721 14.916-16.582L240.085 0" style="stroke-width:15;stroke-linecap:round;stroke-linejoin:round;stroke-miterlimit:10;stroke-dasharray:none;stroke-opacity:1" transform="translate(188.323 7.5)" fill="none" stroke="#000000" stroke-width="15" stroke-linecap="round" stroke-linejoin="round" stroke-miterlimit="10" stroke-dasharray="none" stroke-opacity="" data-original="#000000"></path><path d="M0 0h497" style="stroke-width:15;stroke-linecap:round;stroke-linejoin:round;stroke-miterlimit:10;stroke-dasharray:none;stroke-opacity:1" transform="translate(7.5 7.5)" fill="none" stroke="#000000" stroke-width="15" stroke-linecap="round" stroke-linejoin="round" stroke-miterlimit="10" stroke-dasharray="none" stroke-opacity="" data-original="#000000"></path><path d="M0 0c0-11.598-9.401-21-21-21-11.598 0-21 9.402-21 21s9.402 21 21 21C-9.401 21 0 11.598 0 0Z" style="stroke-width:15;stroke-linecap:round;stroke-linejoin:round;stroke-miterlimit:10;stroke-dasharray:none;stroke-opacity:1" transform="translate(329.365 78.25)" fill="none" stroke="#000000" stroke-width="15" stroke-linecap="round" stroke-linejoin="round" stroke-miterlimit="10" stroke-dasharray="none" stroke-opacity="" data-original="#000000"></path><path d="M0 0a7.5 7.5 0 1 0-15 0A7.5 7.5 0 0 0 0 0" style="fill-opacity:1;fill-rule:nonzero;stroke:none" transform="translate(64.473 425.029)" fill="#000000" data-original="#000000"></path><path d="M0 0a7.5 7.5 0 1 0-15 0A7.5 7.5 0 0 0 0 0" style="fill-opacity:1;fill-rule:nonzero;stroke:none" transform="translate(94.473 425.029)" fill="#000000" data-original="#000000"></path><path d="M0 0a7.5 7.5 0 1 0-15 0A7.5 7.5 0 0 0 0 0" style="fill-opacity:1;fill-rule:nonzero;stroke:none" transform="translate(124.473 425.029)" fill="#000000" data-original="#000000"></path></g></g></svg>