<svg xmlns="http://www.w3.org/2000/svg" version="1.1" xmlns:xlink="http://www.w3.org/1999/xlink" width="512" height="512" x="0" y="0" viewBox="0 0 496.159 496.159" style="enable-background:new 0 0 512 512" xml:space="preserve" class=""><g><path d="M248.083.003C111.071.003 0 111.063 0 248.085c0 137.001 111.07 248.07 248.083 248.07 137.006 0 248.076-111.069 248.076-248.07C496.159 111.062 385.089.003 248.083.003z" style="" fill="#d61e1e" data-original="#d61e1e" class=""></path><path d="M248.082 39.002C132.609 39.002 39 132.602 39 248.084c0 115.463 93.609 209.072 209.082 209.072 115.468 0 209.077-93.609 209.077-209.072 0-115.482-93.609-209.082-209.077-209.082z" style="" fill="#ffffff" data-original="#f4eded" class="" opacity="1"></path><path d="M85.851 60.394A249.6 249.6 0 0 0 60.394 85.85l349.914 349.914a249.59 249.59 0 0 0 25.456-25.456L85.851 60.394z" style="" fill="#d61e1e" data-original="#d61e1e" class=""></path></g></svg>