<svg xmlns="http://www.w3.org/2000/svg" version="1.1" xmlns:xlink="http://www.w3.org/1999/xlink" width="512" height="512" x="0" y="0" viewBox="0 0 32 32" style="enable-background:new 0 0 512 512" xml:space="preserve" class="">
  <g>
    <path d="m27.599 5.479-3.236-3.236A3.874 3.874 0 0 0 21.605 1.1H8.159a4.905 4.905 0 0 0-4.9 4.9v20c0 2.702 2.198 4.9 4.9 4.9h15.683c2.702 0 4.9-2.198 4.9-4.9V8.236a3.882 3.882 0 0 0-1.143-2.757zM23.09 3.515l3.236 3.236c.391.391.615.932.615 1.485v.3h-4.525c-.606 0-1.1-.494-1.1-1.1V2.9h.289a2.09 2.09 0 0 1 1.485.615zm.751 25.585H8.159a3.104 3.104 0 0 1-3.1-3.1V6c0-1.709 1.391-3.1 3.1-3.1h11.358v4.536c0 1.599 1.301 2.9 2.9 2.9h4.525V26a3.105 3.105 0 0 1-3.101 3.1z" fill="currentColor" opacity="1" class=""></path>
    <path d="M15.795 15.408c.998.227 1.132.486 1.133.494-.009.374-.826.572-1.571.633a.901.901 0 0 0-1.796.082c0 .462.183.894.516 1.214.276.267.64.424 1.021.461v.059a.9.9 0 0 0 1.8 0v-.29c1.58-.492 1.817-1.582 1.831-2.113.021-.78-.402-1.811-2.533-2.296-1.015-.231-1.119-.461-1.123-.493.032-.473 1.144-.58 1.563-.603a.9.9 0 0 0 1.793-.114 1.7 1.7 0 0 0-.517-1.218 1.65 1.65 0 0 0-1.015-.461v-.056a.9.9 0 0 0-1.8 0v.295c-1.447.451-1.778 1.407-1.82 2.033-.08 1.176.767 1.974 2.518 2.373zM21.804 21.204H10.196a.9.9 0 0 0 0 1.8h11.608a.9.9 0 0 0 0-1.8zM16.502 24.6h-6.307a.9.9 0 0 0 0 1.8h6.307a.9.9 0 0 0 0-1.8z" fill="currentColor" opacity="1" class=""></path>
  </g>
</svg>
