<svg xmlns="http://www.w3.org/2000/svg" version="1.1" xmlns:xlink="http://www.w3.org/1999/xlink" width="512" height="512" x="0" y="0" viewBox="0 0 26 26" style="enable-background:new 0 0 512 512" xml:space="preserve" class=""><g><path d="M21.812 23.02h-.81V2.98h.808a1 1 0 1 0 0-2H4.188a1 1 0 1 0 0 2h.814v20.04h-.81c-.56 0-1 .45-1 1s.44 1 1 1h17.62c.55 0 1-.45 1-1s-.45-1-1-1zm-4.81-14.88c.55 0 1 .45 1 1v1c0 .55-.45 1-1 1s-1-.45-1-1v-1c0-.55.45-1 1-1zm-1-3v-1c0-.55.45-1 1-1s1 .45 1 1v1c0 .55-.45 1-1 1s-1-.45-1-1zm1 8c.55 0 1 .45 1 1v1c0 .55-.45 1-1 1s-1-.45-1-1v-1c0-.55.45-1 1-1zm-4-2c-.55 0-1-.45-1-1v-1c0-.55.45-1 1-1s1 .45 1 1v1c0 .55-.45 1-1 1zm1 3v1c0 .55-.45 1-1 1s-1-.45-1-1v-1c0-.55.45-1 1-1s1 .45 1 1zm-1-8c-.55 0-1-.45-1-1v-1c0-.55.45-1 1-1s1 .45 1 1v1c0 .55-.45 1-1 1zm-4 5c-.55 0-1-.45-1-1v-1c0-.55.45-1 1-1s1 .45 1 1v1c0 .55-.45 1-1 1zm1 3v1c0 .55-.45 1-1 1s-1-.45-1-1v-1c0-.55.45-1 1-1s1 .45 1 1zm-1-8c-.55 0-1-.45-1-1v-1c0-.55.45-1 1-1s1 .45 1 1v1c0 .55-.45 1-1 1zm1.78 16.88v-2.47c0-1.22.99-2.22 2.22-2.22 1.204 0 2.21.959 2.21 2.22v2.47z" fill="#000000" opacity="1" data-original="#000000" class=""></path></g></svg>