<svg xmlns="http://www.w3.org/2000/svg" version="1.1" xmlns:xlink="http://www.w3.org/1999/xlink" width="22px" height="22px" x="0" y="0" viewBox="0 0 25 25" style="enable-background:new 0 0 512 512" xml:space="preserve" class=""><g><path d="M22.515 22.49h-1.23V2.47c0-1.08-.88-1.97-1.97-1.97H5.685c-1.08 0-1.97.89-1.97 1.97v20.02h-1.23a1.005 1.005 0 1 0 0 2.01h20.03a1.005 1.005 0 1 0 0-2.01zm-6.49-18.94c0-.17.14-.31.31-.31h1.4c.17 0 .31.14.31.31v1.46c0 .16-.14.3-.31.3h-1.4a.31.31 0 0 1-.31-.3zm0 4.59c0-.17.14-.31.31-.31h1.4c.17 0 .31.14.31.31V9.6c0 .17-.14.3-.31.3h-1.4c-.17 0-.31-.13-.31-.3zm0 4.59c0-.17.14-.31.31-.31h1.4c.17 0 .31.14.31.31v1.46c0 .17-.14.3-.31.3h-1.4c-.17 0-.31-.13-.31-.3zm-4.53-9.18c0-.17.14-.31.31-.31h1.4c.17 0 .3.14.3.31v1.46a.3.3 0 0 1-.3.3h-1.4a.31.31 0 0 1-.31-.3zm0 4.59c0-.17.14-.31.31-.31h1.4c.17 0 .3.14.3.31V9.6c0 .17-.13.3-.3.3h-1.4c-.17 0-.31-.13-.31-.3zm0 4.59c0-.17.14-.31.31-.31h1.4c.17 0 .3.14.3.31v1.46c0 .17-.13.3-.3.3h-1.4c-.17 0-.31-.13-.31-.3zm-4.53-9.18c0-.17.14-.31.31-.31h1.39c.17 0 .31.14.31.31v1.46c0 .16-.14.3-.31.3h-1.39a.31.31 0 0 1-.31-.3zm0 4.59c0-.17.14-.31.31-.31h1.39c.17 0 .31.14.31.31V9.6c0 .17-.14.3-.31.3h-1.39c-.17 0-.31-.13-.31-.3zm0 4.59c0-.17.14-.31.31-.31h1.39c.17 0 .31.14.31.31v1.46c0 .17-.14.3-.31.3h-1.39c-.17 0-.31-.13-.31-.3zm3.43 9.76v-3.32c0-1.17.94-2.11 2.11-2.11 1.14 0 2.11.93 2.11 2.11v3.32z" fill="#8b8b8b" opacity="1" data-original="#000000" class=""></path></g></svg>