<svg width="561" height="399" viewBox="0 0 561 399" fill="none" xmlns="http://www.w3.org/2000/svg">
<path d="M1 388V11C1 5.47715 5.47715 1 11 1H219H276.5H287H355.5C361.023 1 365.5 5.46273 365.5 10.9856V57.5C365.5 46.2717 276.5 78.3582 276.5 153.5C276.5 242.306 376.5 355.5 376.5 355.5V388C376.5 393.523 372.023 398 366.5 398H11C5.47715 398 1 393.523 1 388Z" fill="#02106B" stroke="black"/>
<path d="M56 78H164.827H249.002" stroke="white" stroke-width="30" stroke-linecap="round"/>
<path d="M56 157H181.227H225.604" stroke="white" stroke-width="30" stroke-linecap="round"/>
<path d="M56 232H161.898H242.04" stroke="white" stroke-width="30" stroke-linecap="round"/>
<path d="M56 310H152.941H269.53" stroke="white" stroke-width="30" stroke-linecap="round"/>
<path d="M415.279 65C358.84 65 312.975 111.024 312.975 167.656C312.975 186.819 318.262 205.469 328.321 221.551L408.344 352.959C409.71 355.184 411.756 356.553 414.143 356.895C417.382 357.408 420.964 356.04 422.839 352.789L503.092 220.182C512.639 204.442 517.584 186.135 517.584 167.656C517.584 111.024 471.719 65 415.279 65ZM415.279 218.984C386.635 218.984 364.127 195.716 364.127 167.656C364.127 139.425 387.145 116.328 415.279 116.328C443.414 116.328 466.432 139.425 466.432 167.656C466.432 195.545 444.265 218.984 415.279 218.984Z" fill="#FD003A"/>
<path d="M415.5 65V116.328C443.634 116.328 466.652 139.425 466.652 167.656C466.652 195.545 444.486 218.984 415.5 218.984V356.995C418.409 357.063 421.401 355.663 423.059 352.789L503.312 220.182C512.859 204.442 517.805 186.135 517.805 167.656C517.805 111.024 471.939 65 415.5 65Z" fill="#E50027"/>
<ellipse cx="416.728" cy="167.32" rx="54.6392" ry="52.0574" fill="white"/>
</svg>
