<svg width="16" height="16" viewBox="0 0 16 16" fill="none" xmlns="http://www.w3.org/2000/svg">
<path d="M11.6029 9.67458L10.8822 8.51305C11.6385 9.45281 13.038 9.4995 13.855 8.63071C14.601 7.83744 14.563 6.59165 13.7696 5.84551C12.9766 5.09973 11.7306 5.13755 10.9844 5.93097C10.4112 6.54052 10.3072 7.40721 10.63 8.10653L8.88669 5.29684L11.4737 4.55033C12.2771 4.3185 12.6568 3.39887 12.2486 2.66742C11.9522 2.13633 11.337 1.88314 10.7527 2.05177L6.83617 3.18193C5.82071 3.47499 5.36597 4.65542 5.92354 5.55413L7.10731 7.46203L5.03125 8.75018C7.5289 8.80757 9.33352 9.56803 11.6029 9.67458Z" fill="black"/>
<path d="M1.55973 10.9687C7.23737 9.35473 9.38164 12.613 15.6714 10.9712C15.9063 10.9099 16.0469 10.6698 15.9856 10.435C15.9244 10.2002 15.6843 10.0595 15.4495 10.1208C9.40657 11.6982 7.25934 8.43475 1.31941 10.1233C1.08597 10.1896 0.950499 10.4327 1.01686 10.6661C1.08324 10.8996 1.32638 11.0351 1.55973 10.9687Z" fill="black"/>
<path d="M15.4495 12.1716C9.39547 13.752 7.27112 10.4822 1.31941 12.1741C1.08597 12.2405 0.950499 12.4835 1.01686 12.717C1.08321 12.9505 1.32635 13.0859 1.55973 13.0195C7.23737 11.4056 9.38164 14.6639 15.6714 13.022C15.9063 12.9607 16.0469 12.7207 15.9856 12.4858C15.9244 12.251 15.6843 12.1103 15.4495 12.1716Z" fill="black"/>
</svg>
