<svg width="16" height="16" viewBox="0 0 16 16" fill="none" xmlns="http://www.w3.org/2000/svg">
<path d="M11.3898 8.29229C12.1966 8.38673 12.927 7.80919 13.0215 7.0023C13.1158 6.19563 12.5383 5.46508 11.7315 5.37071C10.9247 5.27627 10.1942 5.85381 10.1 6.66064C10.0054 7.46747 10.583 8.19792 11.3898 8.29229Z" fill="black"/>
<path d="M4.98314 7.0962L7.17089 6.65932L7.64134 7.41593L5.93688 9.0367C6.20007 9.10321 6.45283 9.2022 6.68779 9.33171C6.80049 9.39383 6.9061 9.46558 7.00821 9.53491C7.17269 9.64662 7.32748 9.75414 7.48088 9.79626C7.6022 9.82956 7.76118 9.83146 7.77128 9.83205C7.98736 9.83019 8.17774 9.77007 8.37205 9.64338C8.87745 9.31385 9.49776 8.97248 10.2671 8.93869C10.3239 8.9362 10.3813 8.93492 10.4377 8.93492C10.6845 8.93492 10.9258 8.95918 11.1566 9.00618C10.9983 8.75342 8.17758 5.3353 8.17758 5.3353L8.10323 5.24637C7.92121 5.03002 7.61659 4.93952 7.33574 5.04245L4.6794 6.01675C4.4233 6.1104 4.26652 6.37919 4.32152 6.65486C4.38236 6.95938 4.67858 7.15697 4.98314 7.0962Z" fill="black"/>
<path d="M14.6542 10.4946C14.2921 10.6569 14.0222 10.7232 13.7224 10.7232C13.6043 10.7232 13.4822 10.7126 13.349 10.6908C12.9052 10.6116 12.5888 10.3554 12.2829 10.1075C12.0947 9.9551 11.917 9.8111 11.7114 9.70509C11.3393 9.51219 10.8918 9.41028 10.4169 9.41028C10.3677 9.41028 10.3175 9.41143 10.268 9.41362C9.61865 9.44211 9.09215 9.73099 8.6198 10.0389C8.34272 10.2197 8.01404 10.3064 7.71575 10.3064C7.6258 10.3064 7.4427 10.2867 7.32387 10.2524C7.09583 10.1866 6.9003 10.0538 6.71119 9.9254C6.61407 9.85939 6.52232 9.79711 6.42962 9.746C6.0327 9.52717 5.57434 9.41149 5.10416 9.41149H5.09462C4.43635 9.41365 3.84101 9.61554 3.37305 9.99519C2.72143 10.524 2.2914 10.6726 2.16881 10.6936C2.16881 10.6936 2.06598 10.7204 1.84518 10.7204C1.42219 10.7204 1.0687 10.5819 0.7139 10.4276C0.464646 10.3192 0.22975 10.257 0 10.2388C0.044547 10.2646 0.0871929 10.2915 0.12856 10.3198C0.30865 10.4454 0.456877 10.598 0.600156 10.7456C0.676859 10.8245 0.749269 10.8991 0.826201 10.9699C1.12741 11.247 1.74907 11.5745 2.46457 11.5745C2.82764 11.5745 3.17893 11.4956 3.50859 11.3398C3.60559 11.294 3.70003 11.2394 3.79997 11.1817C3.9658 11.086 4.13806 10.9895 4.32893 10.9252C4.56979 10.8441 4.94367 10.871 4.94367 10.871C5.33132 10.8957 5.62161 11.0789 5.8312 11.2357C6.46974 11.7133 7.07219 11.9388 7.72716 11.9451L7.76052 11.9453C8.21117 11.9453 8.62347 11.8585 8.98604 11.6872C9.15492 11.6073 9.3157 11.4899 9.48599 11.3655C9.80579 11.1319 10.1365 10.8903 10.5625 10.8736C10.5878 10.8726 10.6136 10.872 10.6397 10.872C10.8729 10.872 11.2241 10.9126 11.5727 11.1056C11.9922 11.3387 12.4998 11.577 13.0854 11.577C13.1704 11.577 13.2573 11.572 13.3435 11.5623C13.8825 11.5013 14.3381 11.3025 14.6977 10.9716C14.7748 10.9007 14.8474 10.8258 14.9242 10.7466C15.0881 10.5778 15.2575 10.4032 15.4715 10.2706C15.4876 10.2606 15.5037 10.251 15.52 10.2416C15.2613 10.2646 14.9873 10.3452 14.6542 10.4946Z" fill="black"/>
</svg>
