<svg xmlns="http://www.w3.org/2000/svg" version="1.1" xmlns:xlink="http://www.w3.org/1999/xlink" width="512" height="512" x="0" y="0" viewBox="0 0 32 32" style="enable-background:new 0 0 512 512" xml:space="preserve" class=""><g><path fill="#5d596c" fill-rule="evenodd" d="M17 10a5 5 0 1 1-10 0 5 5 0 0 1 10 0zm-1.786 7.155A8.02 8.02 0 0 0 15 19a7.981 7.981 0 0 0 2.746 6.033 6.701 6.701 0 0 1-3.478.967H9.732A6.732 6.732 0 0 1 3 19.268c0-.392.206-.752.566-.907C4.652 17.895 7.342 17 12 17c1.2 0 2.269.06 3.214.155zm9.64 2.595h2.076a4.004 4.004 0 0 1-3.18 3.18v-2.075a2.006 2.006 0 0 0 1.105-1.105zm0-1.5h2.076a4.001 4.001 0 0 0-7.86 0h2.075a2 2 0 0 1 3.71 0zm-3.709 1.5H19.07a4.004 4.004 0 0 0 3.18 3.18v-2.075a2.006 2.006 0 0 1-1.105-1.105zM29 19a6 6 0 1 1-12 0 6 6 0 0 1 12 0z" clip-rule="evenodd" opacity="1" data-original="#000000" class=""></path></g></svg>