<svg xmlns="http://www.w3.org/2000/svg" version="1.1" xmlns:xlink="http://www.w3.org/1999/xlink" width="20" height="20" x="0" y="0" viewBox="0 0 1000 1000" style="enable-background:new 0 0 512 512" xml:space="preserve" class=""><g><path fill="#9282ff" d="M771 803.07V884H229v-80.93A14.08 14.08 0 0 1 243.07 789h513.86A14.08 14.08 0 0 1 771 803.07z" opacity="1" data-original="#ffe082" class=""></path><path fill="#ff3d00" d="M695.24 304H304.76C312.6 199 397.17 116 500 116c52.19 0 101.29 21.14 138.26 59.52 33.49 34.77 53.4 79.91 56.98 128.48z" opacity="1" data-original="#ff3d00" class=""></path><path fill="#7f40ff" d="M304.17 336v421h391.66V336zm178.65 258.71a16 16 0 1 1-22.51 22.74l-52.82-52.27-1.66 1.42v39.48a16 16 0 0 1-32 0V488.92a16 16 0 0 1 32 0v35.58l55.34-47.3A16 16 0 0 1 482 501.52l-50.1 42.79zm143.35 11.37a16 16 0 0 1-32 0v-23.14l-8.78 25a16 16 0 0 1-15.89 14.09h-.4A16 16 0 0 1 553.22 608l-8.78-25v23.14a16 16 0 0 1-32 0V488.92a16 16 0 0 1 31.1-5.29l25.76 73.51 25.77-73.51a16 16 0 0 1 31.1 5.29z" opacity="1" data-original="#ffd740" class=""></path><g fill="#fff" opacity=".5"><path d="M761 813.07V894H219v-80.93A14.08 14.08 0 0 1 233.07 799h513.86A14.08 14.08 0 0 1 761 813.07zM685.24 314H294.76C302.6 209 387.17 126 490 126c52.19 0 101.29 21.14 138.26 59.52 33.49 34.77 53.4 79.91 56.98 128.48zM294.17 346v421h391.66V346zm178.65 258.71a16 16 0 1 1-22.51 22.74l-52.82-52.27-1.66 1.42v39.48a16 16 0 0 1-32 0V498.92a16 16 0 0 1 32 0v35.58l55.34-47.3A16 16 0 0 1 472 511.52l-50.1 42.79zm143.35 11.37a16 16 0 0 1-32 0v-23.14l-8.78 25a16 16 0 0 1-15.89 14.09h-.4A16 16 0 0 1 543.22 618l-8.78-25v23.14a16 16 0 1 1-32 0V498.92a16 16 0 0 1 31.1-5.29l25.76 73.51 25.77-73.51a16 16 0 0 1 31.1 5.29z" fill="#ffffff" opacity="1" data-original="#ffffff" class=""></path></g><g fill="#413b32"><path d="M727.83 319.46V773a16 16 0 0 1-32 0V319.94q0-8-.59-15.94c-3.58-48.57-23.49-93.71-57-128.48C601.29 137.14 552.19 116 500 116c-102.83 0-187.4 83-195.24 188q-.58 7.89-.59 15.94V773a16 16 0 0 1-32 0V319.18c.18-62.62 23.78-121.5 66.51-165.86C381.74 108.62 439 84 500 84s118.26 24.62 161.31 69.32c42.73 44.36 66.33 103.24 66.51 165.86 0 .09.01.18.01.28z" fill="#413b32" opacity="1" data-original="#413b32" class=""></path><path d="M756.93 757H243.07A46.13 46.13 0 0 0 197 803.07v89a24 24 0 0 0 24 24h558a24 24 0 0 0 24-24v-89A46.13 46.13 0 0 0 756.93 757zM771 884H229v-80.93A14.08 14.08 0 0 1 243.07 789h513.86A14.08 14.08 0 0 1 771 803.07zM727.84 320v.41a16 16 0 0 1-16 15.59H288.16a16 16 0 0 1-16-15.59v-1.23a16 16 0 0 1 16-15.18h423.68a16 16 0 0 1 16 15.18V320zM405.83 488.92v117.16a16 16 0 0 1-32 0V488.92a16 16 0 0 1 32 0z" fill="#413b32" opacity="1" data-original="#413b32" class=""></path><path d="m482 501.52-50.1 42.79-24.41 20.87-1.66 1.42-5.3 4.53a16 16 0 0 1-20.8-24.32l16.52-14.12 3.25-2.78 6.33-5.41 55.34-47.3A16 16 0 0 1 482 501.52z" fill="#413b32" opacity="1" data-original="#413b32" class=""></path><path d="M482.93 617.34a16 16 0 0 1-22.62.11l-52.82-52.27-1.66-1.65-8.9-8.81a16 16 0 0 1-.68-22c.18-.21.37-.41.56-.6a15.39 15.39 0 0 1 2.69-2.18 15.67 15.67 0 0 1 6.33-2.38 15.93 15.93 0 0 1 13.61 4.44l12.46 12.33 50.92 50.4a16 16 0 0 1 .11 22.61zM626.17 488.92v117.16a16 16 0 0 1-32 0v-23.14l-8.78 25a16 16 0 0 1-15.89 14.09h-.4A16 16 0 0 1 553.22 608l-8.78-25v23.14a16 16 0 0 1-32 0V488.92a16 16 0 0 1 31.1-5.29l25.76 73.51 25.77-73.51a16 16 0 0 1 31.1 5.29z" fill="#413b32" opacity="1" data-original="#413b32" class=""></path><path d="M727.83 319.46V773a16 16 0 0 1-32 0V319.94q0-8-.59-15.94c-3.58-48.57-23.49-93.71-57-128.48C601.29 137.14 552.19 116 500 116c-102.83 0-187.4 83-195.24 188q-.58 7.89-.59 15.94V773a16 16 0 0 1-32 0V319.18c.18-62.62 23.78-121.5 66.51-165.86C381.74 108.62 439 84 500 84s118.26 24.62 161.31 69.32c42.73 44.36 66.33 103.24 66.51 165.86 0 .09.01.18.01.28z" fill="#413b32" opacity="1" data-original="#413b32" class=""></path><path d="M756.93 757H243.07A46.13 46.13 0 0 0 197 803.07v89a24 24 0 0 0 24 24h558a24 24 0 0 0 24-24v-89A46.13 46.13 0 0 0 756.93 757zM771 884H229v-80.93A14.08 14.08 0 0 1 243.07 789h513.86A14.08 14.08 0 0 1 771 803.07zM727.84 320v.41a16 16 0 0 1-16 15.59H288.16a16 16 0 0 1-16-15.59v-1.23a16 16 0 0 1 16-15.18h423.68a16 16 0 0 1 16 15.18V320zM405.83 488.92v117.16a16 16 0 0 1-32 0V488.92a16 16 0 0 1 32 0z" fill="#413b32" opacity="1" data-original="#413b32" class=""></path><path d="m482 501.52-50.1 42.79-24.41 20.87-1.66 1.42-5.3 4.53a16 16 0 0 1-20.8-24.32l16.52-14.12 3.25-2.78 6.33-5.41 55.34-47.3A16 16 0 0 1 482 501.52z" fill="#413b32" opacity="1" data-original="#413b32" class=""></path><path d="M482.93 617.34a16 16 0 0 1-22.62.11l-52.82-52.27-1.66-1.65-8.9-8.81a16 16 0 0 1-.68-22c.18-.21.37-.41.56-.6a15.39 15.39 0 0 1 2.69-2.18 15.67 15.67 0 0 1 6.33-2.38 15.93 15.93 0 0 1 13.61 4.44l12.46 12.33 50.92 50.4a16 16 0 0 1 .11 22.61zM626.17 488.92v117.16a16 16 0 0 1-32 0v-23.14l-8.78 25a16 16 0 0 1-15.89 14.09h-.4A16 16 0 0 1 553.22 608l-8.78-25v23.14a16 16 0 0 1-32 0V488.92a16 16 0 0 1 31.1-5.29l25.76 73.51 25.77-73.51a16 16 0 0 1 31.1 5.29z" fill="#413b32" opacity="1" data-original="#413b32" class=""></path></g></g></svg>