<svg xmlns="http://www.w3.org/2000/svg" version="1.1" xmlns:xlink="http://www.w3.org/1999/xlink" width="20px" height="20px" x="0" y="0" viewBox="0 0 512 512" style="enable-background:new 0 0 512 512" xml:space="preserve" class=""><g><path d="M313.107 201.775c0-53.378-43.439-96.805-96.834-96.805s-96.805 43.426-96.805 96.805 43.427 96.833 96.805 96.833 96.834-43.439 96.834-96.833zm-96.834 66.833c-36.836 0-66.805-29.981-66.805-66.833s29.969-66.805 66.805-66.805 66.834 29.968 66.834 66.805-29.981 66.833-66.834 66.833zm266.099 81.57-11.465-7.066-7.501-18.07 3.123-13.095a15.001 15.001 0 0 0-3.984-14.086l-20.295-20.295a15.004 15.004 0 0 0-14.063-3.99l-13.113 3.106-15.965-6.61c7.259-22.906 10.94-45.884 10.94-68.297C410.049 94.927 323.121 8 216.274 8S22.499 94.927 22.499 201.775c0 52.464 19.354 105.31 59.169 161.557 33.204 46.908 75.147 88.168 108.851 121.321a4106.721 4106.721 0 0 1 15.178 14.983c2.926 2.91 6.751 4.364 10.577 4.364s7.655-1.456 10.582-4.369c4.916-4.893 10.07-9.964 15.4-15.208 7.673-7.549 15.907-15.657 24.363-24.152l16.772 16.773a15 15 0 0 0 14.091 3.983l13.071-3.122 18.059 7.477 7.062 11.479a14.998 14.998 0 0 0 12.775 7.14h28.714a14.998 14.998 0 0 0 12.775-7.14L397 485.382l18.061-7.478 13.103 3.124a14.992 14.992 0 0 0 14.094-3.992l20.295-20.324a15 15 0 0 0 3.976-14.084l-3.121-13.063 7.5-18.067 11.465-7.066a14.998 14.998 0 0 0 7.13-12.77v-28.714a15 15 0 0 0-7.13-12.77zm-261.156 112.86c-1.666 1.639-3.315 3.261-4.945 4.867l-4.714-4.639C144.43 397.234 52.499 306.801 52.499 201.775 52.499 111.469 125.968 38 216.273 38s163.775 73.469 163.775 163.775c0 15.976-2.197 32.358-6.529 48.834h-25.071a15.002 15.002 0 0 0-12.77 7.129l-7.062 11.458-18.076 7.484-13.081-3.104a15.004 15.004 0 0 0-14.062 3.981l-20.323 20.295a15 15 0 0 0-3.991 14.093l3.124 13.102-7.479 18.061-11.479 7.063a14.998 14.998 0 0 0-7.14 12.775v28.714a14.998 14.998 0 0 0 7.14 12.775l11.479 7.063 5.259 12.701c-13.378 13.847-26.761 27.02-38.772 38.838zm238.286-79.752-8.461 5.215a14.989 14.989 0 0 0-5.983 7.019l-11.225 27.042a14.992 14.992 0 0 0-.736 9.235l2.305 9.648-8.442 8.454-9.666-2.305a14.997 14.997 0 0 0-9.218.732l-27.041 11.196a14.993 14.993 0 0 0-7.037 5.999L368.781 474h-11.948l-5.217-8.479a14.998 14.998 0 0 0-7.037-5.999l-27.042-11.196a15.012 15.012 0 0 0-9.223-.731l-9.642 2.303-8.46-8.459 2.304-9.642a15 15 0 0 0-.731-9.224l-11.197-27.042a15.006 15.006 0 0 0-5.998-7.037l-8.479-5.217v-11.948l8.479-5.217a14.996 14.996 0 0 0 5.998-7.037l11.197-27.042a14.997 14.997 0 0 0 .732-9.218l-2.305-9.666 8.464-8.453 9.659 2.292c3.07.729 6.288.471 9.201-.736l27.042-11.196a15.002 15.002 0 0 0 7.031-5.988l5.215-8.46h11.964l5.215 8.46a15.002 15.002 0 0 0 7.031 5.988l27.041 11.196a14.991 14.991 0 0 0 9.195.737l9.686-2.294 8.446 8.447-2.307 9.673a14.998 14.998 0 0 0 .737 9.23l11.225 27.042a14.994 14.994 0 0 0 5.983 7.019l8.461 5.215v11.964zm-96.682-62.948c-31.419 0-56.979 25.548-56.979 56.952s25.561 56.98 56.979 56.98 56.951-25.561 56.951-56.98-25.548-56.952-56.951-56.952zm0 83.932c-14.877 0-26.979-12.103-26.979-26.98s12.103-26.952 26.979-26.952 26.951 12.09 26.951 26.952-12.09 26.98-26.951 26.98z" fill="#ff9f43" opacity="1" data-original="#000000" class=""></path></g></svg>