<svg xmlns="http://www.w3.org/2000/svg" width="28" height="28" viewBox="0 0 28 28">
  <g id="hotel" transform="translate(-1.475 -0.5)">
    <path id="Path_10" data-name="Path 10" d="M28.192,26.155H26.631V2.8a2.411,2.411,0,0,0-2.5-2.3H6.821a2.419,2.419,0,0,0-2.5,2.3V26.155H2.758a1.177,1.177,0,1,0,0,2.345H28.192a1.177,1.177,0,1,0,0-2.345Zm-8.241-22.1a.381.381,0,0,1,.394-.362h1.778a.381.381,0,0,1,.394.362v1.7a.379.379,0,0,1-.394.35H20.345a.379.379,0,0,1-.394-.35Zm0,5.355a.381.381,0,0,1,.394-.362h1.778a.381.381,0,0,1,.394.362v1.7a.371.371,0,0,1-.394.35H20.345a.371.371,0,0,1-.394-.35Zm0,5.355a.381.381,0,0,1,.394-.362h1.778a.381.381,0,0,1,.394.362v1.7a.371.371,0,0,1-.394.35H20.345a.371.371,0,0,1-.394-.35ZM14.2,4.058a.381.381,0,0,1,.394-.362H16.37a.369.369,0,0,1,.381.362v1.7a.367.367,0,0,1-.381.35H14.592a.379.379,0,0,1-.394-.35Zm0,5.355a.381.381,0,0,1,.394-.362H16.37a.369.369,0,0,1,.381.362v1.7a.36.36,0,0,1-.381.35H14.592a.371.371,0,0,1-.394-.35Zm0,5.355a.381.381,0,0,1,.394-.362H16.37a.369.369,0,0,1,.381.362v1.7a.36.36,0,0,1-.381.35H14.592a.371.371,0,0,1-.394-.35ZM8.446,4.058A.381.381,0,0,1,8.84,3.7h1.765A.381.381,0,0,1,11,4.058v1.7a.379.379,0,0,1-.394.35H8.84a.379.379,0,0,1-.394-.35Zm0,5.355a.381.381,0,0,1,.394-.362h1.765A.381.381,0,0,1,11,9.413v1.7a.371.371,0,0,1-.394.35H8.84a.371.371,0,0,1-.394-.35Zm0,5.355a.381.381,0,0,1,.394-.362h1.765a.381.381,0,0,1,.394.362v1.7a.371.371,0,0,1-.394.35H8.84a.371.371,0,0,1-.394-.35ZM12.8,26.155V22.282a2.57,2.57,0,0,1,2.679-2.462,2.586,2.586,0,0,1,2.679,2.462v3.873Z" fill="#A9A9A9"/>
  </g>
</svg>