<svg width="16" height="16" viewBox="0 0 16 16" fill="none" xmlns="http://www.w3.org/2000/svg">
<path d="M9.4082 0C8.68123 0 8.08984 0.620684 8.08984 1.34766C8.08984 2.07463 8.68123 2.69531 9.4082 2.69531C10.1352 2.69531 10.7266 2.07463 10.7266 1.34766C10.7266 0.620684 10.1352 0 9.4082 0Z" fill="black"/>
<path d="M14.6816 8.84766H10.7266V12.8027C10.7266 13.5308 11.3168 14.1211 12.0449 14.1211H13.3633V14.5605C13.3633 14.8034 13.5598 15 13.8027 15C14.0456 15 14.2422 14.8034 14.2422 14.5605V14.1211H14.6816C15.4098 14.1211 16 13.5308 16 12.8027V10.166C16 9.4379 15.4098 8.84766 14.6816 8.84766Z" fill="black"/>
<path d="M1.87891 11.4844C1.39349 11.4844 1 11.8779 1 12.3633C1 12.8486 1.39349 13.2422 1.87891 13.2422H2.75781V14.5605C2.75781 14.8034 2.95437 15 3.19727 15C3.44017 15 3.63672 14.8034 3.63672 14.5605V13.2422H9.84766V11.4844H1.87891Z" fill="black"/>
<path d="M3.19727 10.6055C3.92538 10.6055 4.51562 10.0152 4.51562 9.28711C4.51562 8.559 3.92538 7.96875 3.19727 7.96875C2.46916 7.96875 1.87891 8.559 1.87891 9.28711C1.87891 10.0152 2.46916 10.6055 3.19727 10.6055Z" fill="black"/>
<path d="M5.39293 8.84766C5.37749 8.84766 5.3646 8.85565 5.34937 8.85644C5.3772 8.99587 5.39293 9.13963 5.39293 9.28711C5.39293 9.74109 5.25447 10.1634 5.01758 10.514C5.14698 10.576 5.21779 10.5982 5.48082 10.6055L9.84605 10.6036V8.84766H5.39293Z" fill="black"/>
<path d="M11.786 2.9528C11.6169 2.78373 11.392 2.70002 11.0778 2.69958C10.8148 2.72534 10.5796 2.86652 10.4333 3.08668L8.80506 5.52899L7.25666 6.30319C6.82113 6.52051 6.645 7.04976 6.86311 7.48335C7.07511 7.90564 7.61713 8.08933 8.04199 7.87602L9.80065 6.99668C9.93674 6.92806 10.053 6.82549 10.138 6.69846L11.2349 5.05265C11.7641 5.87405 12.0434 6.83062 12.0434 7.8181V7.96875H13.8013V7.8181C13.8013 5.98004 13.0854 4.25226 11.786 2.9528Z" fill="black"/>
</svg>
