<?xml version="1.0" encoding="UTF-8"?>
<svg xmlns="http://www.w3.org/2000/svg" xmlns:xlink="http://www.w3.org/1999/xlink" version="1.1" id="Capa_1" x="0px" y="0px" viewBox="0 0 511.999 511.999" style="enable-background:new 0 0 511.999 511.999;" xml:space="preserve" width="512" height="512">
<g>
	<g>
		<rect x="125.013" y="155.617" style="fill:#8D9CA8;" width="261.972" height="214.351"/>
		<rect x="366.985" y="155.617" style="fill:#7A8C98;" width="20" height="214.351"/>
		<path style="fill:#2ED1E2;" d="M85.941,133.491v65.018c0,12.849,11.963,22.349,24.48,19.443l62.238-14.449&#10;&#9;&#9;&#9;c54.832-12.731,111.851-12.731,166.682,0l62.237,14.449c12.517,2.906,24.479-6.595,24.479-19.444v-65.017&#10;&#9;&#9;&#9;c0-11.026-8.94-19.962-19.966-19.962H105.908C94.882,113.529,85.941,122.466,85.941,133.491z"/>
		<path style="fill:#03BED7;" d="M406.091,113.529h-19.999c11.026,0,19.964,8.938,19.964,19.963v65.015&#10;&#9;&#9;&#9;c0,7.987-4.623,14.678-11.127,17.903l6.649,1.542c12.516,2.906,24.479-6.595,24.479-19.444v-65.017&#10;&#9;&#9;&#9;C426.057,122.466,417.117,113.529,406.091,113.529z"/>
		<path style="fill:#596C76;" d="M314.058,28.84h-91.639c-2.417,0-4.62-1.339-5.779-3.46C210.818,14.727,199.515,7.5,186.52,7.5&#10;&#9;&#9;&#9;c-16.806,0-30.782,12.086-33.73,28.038c-0.346,1.873-1.704,3.414-3.521,3.983c-13.928,4.367-24.037,17.371-24.037,32.74&#10;&#9;&#9;&#9;c0,13.286,7.555,24.801,18.6,30.5c2.079,1.072,3.395,3.208,3.395,5.547v51.774h217.548V79.558&#10;&#9;&#9;&#9;C364.774,51.548,342.068,28.84,314.058,28.84z"/>
		<path style="fill:#465A61;" d="M314.058,28.84h-19.001c28.01,0,50.717,22.707,50.717,50.717v80.526h19V79.558&#10;&#9;&#9;&#9;C364.774,51.548,342.068,28.84,314.058,28.84z"/>
		<path style="fill:#3C87D0;" d="M398.542,340.672c-7.957-15.665-21.311-27.922-37.6-34.508l-56.016-22.648&#10;&#9;&#9;&#9;c-3.421-1.383-5.66-4.705-5.66-8.395v-90.472h-86.534v90.472c0,3.69-2.24,7.013-5.661,8.396l-56.015,22.647&#10;&#9;&#9;&#9;c-16.289,6.586-29.643,18.842-37.6,34.508l-62.47,122.996l20.716,15.427l92.72-86.213v103.617h183.153V392.882l92.72,86.213&#10;&#9;&#9;&#9;l20.716-15.428L398.542,340.672z"/>
		<path style="fill:#0078C8;" d="M398.542,340.672c-7.957-15.665-21.311-27.922-37.6-34.508l-56.016-22.648&#10;&#9;&#9;&#9;c-3.421-1.383-5.66-4.705-5.66-8.395v-90.472h-20v99.472c0,3.69,2.239,7.01,5.66,8.394l56.016,22.649&#10;&#9;&#9;&#9;c16.289,6.586,29.645,18.844,37.602,34.509l62.469,122.992l-4.238,3.156l3.521,3.274l20.716-15.428L398.542,340.672z"/>
		<path style="fill:#FFA78F;" d="M304.926,283.516c-3.421-1.383-5.66-4.705-5.66-8.395v-90.472h-86.534v90.472&#10;&#9;&#9;&#9;c0,3.69-2.24,7.013-5.661,8.396l-4.571,1.845c15.181,10.54,33.617,16.727,53.499,16.727s38.317-6.186,53.498-16.726&#10;&#9;&#9;&#9;L304.926,283.516z"/>
		<path style="fill:#F89580;" d="M284.926,292.515l6.526,2.639c6.396-2.611,12.444-5.902,18.046-9.791l-4.571-1.846&#10;&#9;&#9;&#9;c-3.421-1.383-5.66-4.705-5.66-8.395v-90.472h-20v99.472C279.266,287.811,281.505,291.132,284.926,292.515z"/>
		<path style="fill:#FFA78F;" d="M356.34,180.721H155.658c-11.399,0-20.64-9.24-20.64-20.639c0-11.399,9.241-20.641,20.64-20.641&#10;&#9;&#9;&#9;H356.34c11.399,0,20.64,9.242,20.64,20.641S367.739,180.721,356.34,180.721z"/>
		<path style="fill:#FFA78F;" d="M304.085,63.03h-37.883c-2.606,0-5.007,1.544-5.965,3.967&#10;&#9;&#9;&#9;c-4.908,12.426-17.025,21.218-31.197,21.218h-36.316c-7.676,0-13.899,6.223-13.899,13.899v81.784&#10;&#9;&#9;&#9;c0,35.916,51.498,69.536,77.173,69.536c25.675,0,77.173-33.62,77.173-69.536V92.117C333.172,76.053,320.149,63.03,304.085,63.03z"/>
		<path style="fill:#F89580;" d="M304.085,63.03h-19c16.064,0,29.087,13.023,29.087,29.087v91.781&#10;&#9;&#9;&#9;c0,31.89-40.598,61.967-67.673,68.31c3.418,0.801,6.622,1.226,9.5,1.226c25.675,0,77.173-33.62,77.173-69.536V92.117&#10;&#9;&#9;&#9;C333.172,76.053,320.149,63.03,304.085,63.03z"/>
		<path style="fill:#FFF2E2;" d="M148.059,301.978V491.5c0,2.761,2.239,5,5,5h27.728V290.109c0-3.4-3.342-5.794-6.561-4.699&#10;&#9;&#9;&#9;l-18.916,6.438C150.974,293.324,148.059,297.397,148.059,301.978z"/>
		<path style="fill:#FFF2E2;" d="M363.939,301.977V491.5c0,2.761-2.239,5-5,5h-27.728V290.108c0-3.4,3.343-5.793,6.561-4.698&#10;&#9;&#9;&#9;l18.915,6.437C361.024,293.323,363.939,297.396,363.939,301.977z"/>
		<path style="fill:#FEDBBD;" d="M356.687,291.847l-18.915-6.437c-3.218-1.095-6.561,1.298-6.561,4.698v21.122l9.731,3.934&#10;&#9;&#9;&#9;c8.611,3.482,16.39,8.561,22.997,14.878v-28.065C363.939,297.396,361.024,293.323,356.687,291.847z"/>
		<path style="fill:#FFA78F;" d="M149.926,376.439l-98.939,87.23c-9.666,8.522-10.598,23.265-2.076,32.931&#10;&#9;&#9;&#9;c8.522,9.666,23.27,10.593,32.936,2.071l98.939-87.228L149.926,376.439z"/>
		<path style="fill:#FFA78F;" d="M362.073,376.439l98.939,87.229c9.666,8.522,10.597,23.265,2.076,32.932&#10;&#9;&#9;&#9;c-8.522,9.666-23.27,10.593-32.936,2.071l-98.939-87.228L362.073,376.439z"/>
		<path style="fill:#FFA78F;" d="M175.987,358.147h-30.739c-4.809,0-8.707,3.898-8.707,8.707v51.411&#10;&#9;&#9;&#9;c0,4.809,3.898,8.707,8.707,8.707h30.739c9.012,0,16.317-7.306,16.317-16.317v-36.19&#10;&#9;&#9;&#9;C192.304,365.452,184.999,358.147,175.987,358.147z"/>
		<path style="fill:#FFA78F;" d="M336.011,358.147h30.739c4.809,0,8.707,3.898,8.707,8.707v51.411c0,4.809-3.898,8.707-8.707,8.707&#10;&#9;&#9;&#9;h-30.739c-9.012,0-16.317-7.306-16.317-16.317v-36.19C319.694,365.452,327,358.147,336.011,358.147z"/>
	</g>
	<g>
		
			<line style="fill:none;stroke:#000000;stroke-width:15;stroke-linecap:round;stroke-linejoin:round;stroke-miterlimit:10;" x1="125.009" y1="324.111" x2="125.009" y2="214.56"/>
		
			<line style="fill:none;stroke:#000000;stroke-width:15;stroke-linecap:round;stroke-linejoin:round;stroke-miterlimit:10;" x1="386.99" y1="324.111" x2="386.99" y2="214.56"/>
		<path style="fill:none;stroke:#000000;stroke-width:15;stroke-linecap:round;stroke-linejoin:round;stroke-miterlimit:10;" d="&#10;&#9;&#9;&#9;M147.229,113.529h-41.321c-11.03,0-19.967,8.942-19.967,19.962v65.018c0,12.85,11.969,22.353,24.48,19.443&#10;&#9;&#9;&#9;c0,0,68.909-15.952,72.259-16.632"/>
		<path style="fill:none;stroke:#000000;stroke-width:15;stroke-linecap:round;stroke-linejoin:round;stroke-miterlimit:10;" d="&#10;&#9;&#9;&#9;M364.77,113.529h41.322c11.03,0,19.966,8.942,19.966,19.962v65.017c0,12.85-11.969,22.354-24.479,19.444&#10;&#9;&#9;&#9;c0,0-68.908-15.952-72.258-16.632"/>
		<path style="fill:none;stroke:#000000;stroke-width:15;stroke-linecap:round;stroke-linejoin:round;stroke-miterlimit:10;" d="&#10;&#9;&#9;&#9;M362.529,64.59c1.46,4.73,2.244,9.758,2.244,14.968v61.682"/>
		<path style="fill:none;stroke:#000000;stroke-width:15;stroke-linecap:round;stroke-linejoin:round;stroke-miterlimit:10;" d="&#10;&#9;&#9;&#9;M147.226,141.24v-32.931c0-2.34-1.315-4.467-3.395-5.547c-11.04-5.7-18.6-17.21-18.6-30.5c0-15.37,10.107-28.37,24.037-32.74&#10;&#9;&#9;&#9;c1.82-0.57,3.171-2.113,3.521-3.983C155.74,19.578,169.72,7.5,186.52,7.5c13,0,24.3,7.23,30.12,17.88&#10;&#9;&#9;&#9;c1.16,2.12,3.359,3.46,5.779,3.46h91.639c10.14,0,19.592,2.98,27.522,8.11"/>
		<path style="fill:none;stroke:#000000;stroke-width:15;stroke-linecap:round;stroke-linejoin:round;stroke-miterlimit:10;" d="&#10;&#9;&#9;&#9;M212.732,235.871v39.251c0,3.69-2.241,7.006-5.661,8.396l-26.283,10.624"/>
		
			<line style="fill:none;stroke:#000000;stroke-width:15;stroke-linecap:round;stroke-linejoin:round;stroke-miterlimit:10;" x1="180.788" y1="496.5" x2="331.211" y2="496.5"/>
		<path style="fill:none;stroke:#000000;stroke-width:15;stroke-linecap:round;stroke-linejoin:round;stroke-miterlimit:10;" d="&#10;&#9;&#9;&#9;M50.987,463.668l62.47-122.996c7.46-14.69,19.672-26.381,34.602-33.221"/>
		<path style="fill:none;stroke:#000000;stroke-width:15;stroke-linecap:round;stroke-linejoin:round;stroke-miterlimit:10;" d="&#10;&#9;&#9;&#9;M363.939,307.451c14.93,6.84,27.143,18.532,34.603,33.222l62.469,122.995"/>
		<path style="fill:none;stroke:#000000;stroke-width:15;stroke-linecap:round;stroke-linejoin:round;stroke-miterlimit:10;" d="&#10;&#9;&#9;&#9;M299.266,235.871v39.251c0,3.69,2.24,7.005,5.66,8.395l26.283,10.624"/>
		<path style="fill:none;stroke:#000000;stroke-width:15;stroke-linecap:round;stroke-linejoin:round;stroke-miterlimit:10;" d="&#10;&#9;&#9;&#9;M309.497,285.362c-15.18,10.54-33.618,16.726-53.498,16.726s-38.319-6.187-53.499-16.727"/>
		<path style="fill:none;stroke:#000000;stroke-width:15;stroke-linecap:round;stroke-linejoin:round;stroke-miterlimit:10;" d="&#10;&#9;&#9;&#9;M333.169,139.441h23.171c11.4,0,20.64,9.241,20.64,20.641s-9.24,20.639-20.64,20.639h-23.171"/>
		<path style="fill:none;stroke:#000000;stroke-width:15;stroke-linecap:round;stroke-linejoin:round;stroke-miterlimit:10;" d="&#10;&#9;&#9;&#9;M178.829,180.721h-23.171c-11.4,0-20.64-9.239-20.64-20.639s9.24-20.641,20.64-20.641h23.171"/>
		<path style="fill:none;stroke:#000000;stroke-width:15;stroke-linecap:round;stroke-linejoin:round;stroke-miterlimit:10;" d="&#10;&#9;&#9;&#9;M304.085,63.03h-37.883c-2.606,0-5.007,1.544-5.965,3.967c-4.908,12.426-17.025,21.218-31.197,21.218h-36.316&#10;&#9;&#9;&#9;c-7.676,0-13.899,6.223-13.899,13.899v81.784c0,35.916,51.498,69.536,77.173,69.536c25.675,0,77.173-33.62,77.173-69.536V92.117&#10;&#9;&#9;&#9;C333.172,76.053,320.149,63.03,304.085,63.03z"/>
		<path style="fill:none;stroke:#000000;stroke-width:15;stroke-linecap:round;stroke-linejoin:round;stroke-miterlimit:10;" d="&#10;&#9;&#9;&#9;M234.974,188.96c11.038,11.801,31.012,11.801,42.05,0"/>
		<g>
			
				<line style="fill:none;stroke:#000000;stroke-width:15;stroke-linecap:round;stroke-linejoin:round;stroke-miterlimit:10;" x1="221.383" y1="144.633" x2="221.383" y2="152.235"/>
			<path style="fill:none;stroke:#000000;stroke-width:15;stroke-linecap:round;stroke-linejoin:round;stroke-miterlimit:10;" d="&#10;&#9;&#9;&#9;&#9;M206.657,121.667c7.731-8.265,21.72-8.265,29.451,0"/>
			
				<line style="fill:none;stroke:#000000;stroke-width:15;stroke-linecap:round;stroke-linejoin:round;stroke-miterlimit:10;" x1="290.616" y1="144.633" x2="290.616" y2="152.235"/>
			<path style="fill:none;stroke:#000000;stroke-width:15;stroke-linecap:round;stroke-linejoin:round;stroke-miterlimit:10;" d="&#10;&#9;&#9;&#9;&#9;M275.891,121.667c7.731-8.265,21.72-8.265,29.451,0"/>
		</g>
		<path style="fill:none;stroke:#000000;stroke-width:15;stroke-linecap:round;stroke-linejoin:round;stroke-miterlimit:10;" d="&#10;&#9;&#9;&#9;M148.059,358.151v-56.173c0-4.59,2.922-8.66,7.252-10.13l18.916-6.438c3.21-1.1,6.561,1.299,6.561,4.699v68.752"/>
		<path style="fill:none;stroke:#000000;stroke-width:15;stroke-linecap:round;stroke-linejoin:round;stroke-miterlimit:10;" d="&#10;&#9;&#9;&#9;M180.788,426.261V496.5h-27.728c-2.76,0-5-2.24-5-5v-51.209"/>
		<path style="fill:none;stroke:#000000;stroke-width:15;stroke-linecap:round;stroke-linejoin:round;stroke-miterlimit:10;" d="&#10;&#9;&#9;&#9;M94.319,487.681L81.847,498.67c-9.67,8.52-24.406,7.589-32.936-2.071c-8.52-9.67-7.594-24.411,2.076-32.931l85.552-75.417"/>
		
			<line style="fill:none;stroke:#000000;stroke-width:15;stroke-linecap:round;stroke-linejoin:round;stroke-miterlimit:10;" x1="163.169" y1="426.971" x2="120.769" y2="464.351"/>
		<path style="fill:none;stroke:#000000;stroke-width:15;stroke-linecap:round;stroke-linejoin:round;stroke-miterlimit:10;" d="&#10;&#9;&#9;&#9;M175.987,358.147h-30.739c-4.809,0-8.707,3.898-8.707,8.707v51.411c0,4.809,3.898,8.707,8.707,8.707h30.739&#10;&#9;&#9;&#9;c9.012,0,16.317-7.305,16.317-16.317v-36.19C192.304,365.452,184.999,358.147,175.987,358.147z"/>
		<path style="fill:none;stroke:#000000;stroke-width:15;stroke-linecap:round;stroke-linejoin:round;stroke-miterlimit:10;" d="&#10;&#9;&#9;&#9;M363.939,440.301V491.5c0,2.76-2.24,5-5,5h-27.728v-70.239"/>
		<path style="fill:none;stroke:#000000;stroke-width:15;stroke-linecap:round;stroke-linejoin:round;stroke-miterlimit:10;" d="&#10;&#9;&#9;&#9;M331.211,358.861v-68.753c0-3.4,3.351-5.798,6.561-4.698l18.915,6.437c4.33,1.47,7.252,5.54,7.252,10.13v56.174"/>
		<path style="fill:none;stroke:#000000;stroke-width:15;stroke-linecap:round;stroke-linejoin:round;stroke-miterlimit:10;" d="&#10;&#9;&#9;&#9;M375.46,388.251l85.552,75.417c9.67,8.52,10.596,23.262,2.076,32.932c-8.53,9.66-23.266,10.591-32.936,2.071l-81.332-71.699"/>
		<path style="fill:none;stroke:#000000;stroke-width:15;stroke-linecap:round;stroke-linejoin:round;stroke-miterlimit:10;" d="&#10;&#9;&#9;&#9;M336.011,358.147h30.739c4.809,0,8.707,3.898,8.707,8.707v51.411c0,4.809-3.898,8.707-8.707,8.707h-30.739&#10;&#9;&#9;&#9;c-9.012,0-16.317-7.305-16.317-16.317v-36.19C319.694,365.452,327,358.147,336.011,358.147z"/>
		
			<line style="fill:none;stroke:#000000;stroke-width:15;stroke-linecap:round;stroke-linejoin:round;stroke-miterlimit:10;" x1="180.785" y1="335.043" x2="331.213" y2="335.043"/>
	</g>
</g>















</svg>
