<svg xmlns="http://www.w3.org/2000/svg" version="1.1" xmlns:xlink="http://www.w3.org/1999/xlink" width="512" height="512" x="0" y="0" viewBox="0 0 510 510" style="enable-background:new 0 0 512 512" xml:space="preserve" class=""><g><path d="M287.29 279.03 300 329.88h45c49.708 0 90 40.286 90 90v75H75v-75c0-49.795 40.368-90 90-90h45l12.71-50.85M255 360l45-30.125M254.996 360 210 329.875M255 360v75M375 435v60M135 435v60" style="stroke-width:30;stroke-miterlimit:10;" fill="none" stroke="#ff9f43" stroke-width="30" stroke-miterlimit="10" data-original="#000000" opacity="1" class=""></path><path d="M165 165v30c0 49.706 40.294 90 90 90s90-40.294 90-90v-30M345 105c0-49.705-40.295-90-90-90s-90 40.295-90 90l-30 60h240l-30-60zM210 435h90v60h-90zM165 105h180" style="stroke-width:30;stroke-miterlimit:10;" fill="none" stroke="#ff9f43" stroke-width="30" stroke-miterlimit="10" data-original="#000000" opacity="1" class=""></path></g></svg>