<svg xmlns="http://www.w3.org/2000/svg" version="1.1" xmlns:xlink="http://www.w3.org/1999/xlink" width="26px" height="26px" x="0" y="0" viewBox="0 0 32 32" style="enable-background:new 0 0 512 512" xml:space="preserve" class=""><g><g data-name="Layer 6"><path d="M16 2A13.91 13.91 0 0 0 6 6.24V5a1 1 0 0 0-2 0v4a1 1 0 0 0 1 1h4a1 1 0 0 0 0-2H7.08A12 12 0 1 1 4 16a12.2 12.2 0 0 1 .32-2.77 1 1 0 1 0-1.94-.46A13.86 13.86 0 0 0 2 16 14 14 0 1 0 16 2Z" fill="#7367f0" opacity="1" data-original="#000000" class=""></path><path d="M16 6a10 10 0 0 0-4.65 1.15A3 3 0 0 1 9 12H6.84A10 10 0 1 0 16 6Zm2 9a2 2 0 0 1 2 2v2a2 2 0 0 1-2 2h-1v1a1 1 0 0 1-2 0v-1h-2a1 1 0 0 1 0-2h5v-2h-4a2 2 0 0 1-2-2v-2a2 2 0 0 1 2-2h1v-1a1 1 0 0 1 2 0v1h2a1 1 0 0 1 0 2h-5v2Z" fill="#7367f0" opacity="1" data-original="#000000" class=""></path></g></g></svg>