<svg xmlns="http://www.w3.org/2000/svg" version="1.1" xmlns:xlink="http://www.w3.org/1999/xlink" width="16px" height="16px" x="0" y="0" viewBox="0 0 64 64" style="enable-background:new 0 0 512 512" xml:space="preserve" class=""><g><path fill="#0964b3" d="M12 54a4 4 0 0 1-3.267-1.7C5.662 47.931 2 41.861 2 37.782a10 10 0 0 1 20 0c0 4.079-3.662 10.149-6.733 14.523A4 4 0 0 1 12 54zm0-24.218a8.009 8.009 0 0 0-8 8c0 2.775 2.262 7.524 6.37 13.373a1.995 1.995 0 0 0 3.26 0C17.738 45.306 20 40.557 20 37.782a8.009 8.009 0 0 0-8-8z" opacity="1" data-original="#3392e6" class=""></path><path fill="#5e5e5e" d="M12 42.532a4.75 4.75 0 1 1 4.75-4.75 4.756 4.756 0 0 1-4.75 4.75zm0-7.5a2.75 2.75 0 1 0 2.75 2.75 2.753 2.753 0 0 0-2.75-2.75z" opacity="1" data-original="#5e5e5e" class=""></path><path fill="#0964b3" d="M54 30.836a3.328 3.328 0 0 1-2.723-1.413C48.87 26 46 21.231 46 18a8 8 0 0 1 16 0c0 3.231-2.87 8-5.277 11.423A3.328 3.328 0 0 1 54 30.836zM54 12a6.006 6.006 0 0 0-6 6c0 2.083 1.791 5.827 4.914 10.273a1.367 1.367 0 0 0 2.172 0C58.209 23.827 60 20.083 60 18a6.006 6.006 0 0 0-6-6z" opacity="1" data-original="#3392e6" class=""></path><g fill="#5e5e5e"><path d="M54 21.917A3.917 3.917 0 1 1 57.917 18 3.921 3.921 0 0 1 54 21.917zm0-5.834A1.917 1.917 0 1 0 55.917 18 1.919 1.919 0 0 0 54 16.083zM55 54H20a1 1 0 0 1 0-2h35a5 5 0 0 0 0-10H33.5a6.5 6.5 0 0 1 0-13H47a1 1 0 0 1 0 2H33.5a4.5 4.5 0 0 0 0 9H55a7 7 0 0 1 0 14z" fill="#5e5e5e" opacity="1" data-original="#5e5e5e" class=""></path></g></g></svg>