<svg width="16" height="16" viewBox="0 0 16 16" fill="none" xmlns="http://www.w3.org/2000/svg">
<path d="M7.45558 11.2059C6.87939 11.7821 6.87939 12.7169 7.45558 13.2932C8.03207 13.8693 8.96668 13.8693 9.54314 13.2932C10.1193 12.7169 10.1193 11.7821 9.54314 11.2059C8.96668 10.6296 8.03207 10.6296 7.45558 11.2059Z" fill="black"/>
<path d="M8.49995 7.6958C7.28393 7.6958 6.13994 8.16945 5.28055 9.02969C4.94294 9.36715 4.94294 9.91411 5.28055 10.2514C5.61789 10.5888 6.16461 10.5888 6.50222 10.2514C7.03527 9.71756 7.74497 9.42369 8.49995 9.42369C9.25492 9.42369 9.96465 9.71756 10.4977 10.2514C10.6666 10.4201 10.8882 10.5044 11.1087 10.5044C11.3303 10.5044 11.5507 10.4201 11.7194 10.2514C12.057 9.91411 12.057 9.36718 11.7194 9.02969C10.86 8.16945 9.71596 7.6958 8.49995 7.6958Z" fill="black"/>
<path d="M8.50003 4.85107C6.52372 4.85107 4.6658 5.62075 3.26863 7.01811C2.93129 7.35557 2.93129 7.90259 3.26863 8.23977C3.60621 8.57724 4.15323 8.57724 4.49027 8.23977C5.5611 7.16864 6.98534 6.57884 8.5 6.57884C10.014 6.57884 11.4383 7.16864 12.5091 8.23977C12.6778 8.40854 12.8994 8.4929 13.1198 8.4929C13.3414 8.4929 13.5622 8.40854 13.7308 8.23977C14.0682 7.90259 14.0682 7.35557 13.7308 7.01811C12.3336 5.62075 10.4763 4.85107 8.50003 4.85107Z" fill="black"/>
<path d="M15.7475 5.0023C13.812 3.06609 11.2384 2 8.50026 2C5.76215 2 3.18854 3.06609 1.253 5.0023C0.915665 5.33979 0.915665 5.88681 1.253 6.224C1.42195 6.39273 1.64296 6.47703 1.86398 6.47703C2.08499 6.47703 2.30661 6.39273 2.47467 6.224C4.0839 4.61419 6.22414 3.7278 8.50026 3.7278C10.7764 3.7278 12.916 4.61419 14.5253 6.224C14.8626 6.56146 15.4093 6.56115 15.747 6.2243C16.0843 5.88681 16.0843 5.33979 15.7475 5.0023Z" fill="black"/>
</svg>
