<svg xmlns="http://www.w3.org/2000/svg" version="1.1" xmlns:xlink="http://www.w3.org/1999/xlink" width="24" height="24" x="0" y="0" viewBox="0 0 30.724 30.724" style="enable-background:new 0 0 512 512" xml:space="preserve"><g><path d="m30.718 26.475.004-19.877c0-.613-.498-1.107-1.109-1.107H15.599c-.436-.012-.773-.807-.773-1.111v-.127c0-.65-.529-1.18-1.178-1.18H6.187a1.18 1.18 0 0 0-1.179 1.18v.127c0 .309-.341 1.113-.783 1.113h.009A1.111 1.111 0 0 0 3.145 6.6l.002 5.754H.764s-1.056-.055-.685 1.199l2.515 12.922c0 .65.455 1.176 1.104 1.176h26.475c.651 0 .545-1.176.545-1.176zm-4.774-7.795c-2.557 2.355-4.562 5.6-5.168 7.152a.145.145 0 0 1-.106.092c-.012.004-.021.004-.03.004a.142.142 0 0 1-.106-.045l-3.766-3.828c-.029-.029 1.107-1.039 1.162-.998l2.064 1.619c.806-.947 2.789-3.078 5.539-4.764.039-.023.447.602.447.602a.15.15 0 0 1-.036.166zm3.414-4.66-.011 12.975-2.504-13.91c-.211-.764-1.074-.711-1.074-.711H4.51V7.962h24.848v6.058z" fill="#ffffff" opacity="1" data-original="#000000"></path></g></svg>