<svg fill="none" height="32" viewBox="0 0 32 32" width="32" xmlns="http://www.w3.org/2000/svg"><path clip-rule="evenodd" d="m17 10c0 2.7614-2.2386 5-5 5-2.76142 0-5-2.2386-5-5 0-2.76142 2.23858-5 5-5 2.7614 0 5 2.23858 5 5zm-1.7863 7.1554c-.1398.5922-.2137 1.2098-.2137 1.8446 0 2.4075 1.0634 4.5666 2.7462 6.0332-1.0151.6136-2.2052.9668-3.4779.9668h-4.53661c-3.71781 0-6.73169-3.0139-6.73169-6.7317 0-.3923.20566-.7527.56615-.9075 1.08579-.4663 3.77582-1.3608 8.43385-1.3608 1.1997 0 2.2689.0593 3.2137.1554zm9.6409 2.5946h2.0752c-.305 1.6077-1.5721 2.8748-3.1798 3.1798v-2.0752c.5014-.2029.9017-.6033 1.1046-1.1046zm0-1.5h2.0752c-.3511-1.8506-1.977-3.25-3.9298-3.25s-3.5787 1.3994-3.9298 3.25h2.0752c.2967-.733 1.0153-1.25 1.8546-1.25s1.5579.517 1.8546 1.25zm-3.7092 1.5h-2.0752c.305 1.6077 1.5721 2.8748 3.1798 3.1798v-2.0752c-.5014-.2029-.9017-.6033-1.1046-1.1046zm7.8546-.75c0 3.3137-2.6863 6-6 6s-6-2.6863-6-6 2.6863-6 6-6 6 2.6863 6 6z" fill="#000" fill-rule="evenodd"/></svg>