<svg width="32" height="32" viewBox="0 0 32 32" fill="none" xmlns="http://www.w3.org/2000/svg">
<path d="M24.1 2.07202L29.664 7.87202V29.928H8.87903V30H29.735V7.94502L24.1 2.07202Z" fill="#909090"/>
<path d="M24.031 2H8.80798V29.928H29.664V7.873L24.031 2Z" fill="#F4F4F4"/>
<path d="M8.65501 3.5H2.26501V10.327H22.365V3.5H8.65501Z" fill="#7A7B7C"/>
<path d="M22.472 10.211H2.39502V3.37903H22.472V10.211Z" fill="#DD2025"/>
<path d="M9.052 4.534H7.745V9.334H8.77299V7.715L9 7.728C9.22057 7.72421 9.43906 7.68469 9.647 7.611C9.8293 7.5483 9.99701 7.44931 10.14 7.32C10.2855 7.19682 10.4002 7.04136 10.475 6.866C10.5753 6.5745 10.6111 6.2647 10.58 5.958C10.5737 5.73891 10.5353 5.52192 10.466 5.314C10.4029 5.16391 10.3092 5.0286 10.1909 4.91669C10.0726 4.80479 9.93235 4.71873 9.779 4.664C9.6464 4.616 9.50941 4.58117 9.37 4.56C9.26442 4.54371 9.15781 4.53502 9.05099 4.534M8.862 6.828H8.77299V5.348H8.96599C9.05117 5.34186 9.13665 5.35493 9.21609 5.38626C9.29554 5.41759 9.36693 5.46637 9.425 5.529C9.54531 5.69002 9.60959 5.886 9.608 6.087C9.608 6.333 9.60799 6.556 9.38599 6.713C9.22606 6.80097 9.04402 6.84157 8.862 6.828ZM12.533 4.521C12.422 4.521 12.314 4.529 12.238 4.532L12 4.538H11.22V9.338H12.138C12.4888 9.34762 12.8381 9.28816 13.166 9.163C13.4299 9.05832 13.6636 8.88958 13.846 8.672C14.0234 8.45246 14.1507 8.19684 14.219 7.923C14.2976 7.61287 14.3359 7.29392 14.333 6.974C14.3524 6.59616 14.3232 6.21739 14.246 5.847C14.1728 5.57436 14.0357 5.32309 13.846 5.114C13.6972 4.94516 13.515 4.80897 13.311 4.714C13.1358 4.63292 12.9515 4.57316 12.762 4.536C12.6867 4.52356 12.6104 4.51787 12.534 4.519M12.352 8.456H12.252V5.392H12.265C12.4712 5.36828 12.6797 5.40548 12.865 5.499C13.0007 5.60733 13.1112 5.7438 13.189 5.899C13.273 6.06234 13.3213 6.24161 13.331 6.425C13.34 6.645 13.331 6.825 13.331 6.974C13.3351 7.14564 13.324 7.3173 13.298 7.487C13.2672 7.66123 13.2102 7.8298 13.129 7.987C13.0371 8.13316 12.9129 8.25631 12.766 8.347C12.6426 8.4268 12.4965 8.46403 12.35 8.453M17.43 4.538H15V9.338H16.028V7.434H17.328V6.542H16.028V5.43H17.428V4.538" fill="#464648"/>
<path d="M21.781 20.255C21.781 20.255 24.969 19.677 24.969 20.766C24.969 21.855 22.994 21.412 21.781 20.255ZM19.424 20.338C18.9175 20.4499 18.4239 20.6138 17.951 20.827L18.351 19.927C18.751 19.027 19.166 17.8 19.166 17.8C19.6433 18.6033 20.1987 19.3577 20.824 20.052C20.3524 20.1223 19.885 20.2185 19.424 20.34V20.338ZM18.162 13.838C18.162 12.889 18.469 12.63 18.708 12.63C18.947 12.63 19.216 12.745 19.225 13.569C19.1471 14.3976 18.9736 15.2143 18.708 16.003C18.3441 15.3408 18.1558 14.5966 18.161 13.841L18.162 13.838ZM13.513 24.354C12.535 23.769 15.564 21.968 16.113 21.91C16.11 21.911 14.537 24.966 13.513 24.354ZM25.9 20.895C25.89 20.795 25.8 19.688 23.83 19.735C23.0089 19.7218 22.1881 19.7797 21.377 19.908C20.5913 19.1164 19.9146 18.2235 19.365 17.253C19.7113 16.2524 19.9208 15.2097 19.988 14.153C19.959 12.953 19.672 12.265 18.752 12.275C17.832 12.285 17.698 13.09 17.819 14.288C17.9375 15.0931 18.1611 15.8791 18.484 16.626C18.484 16.626 18.059 17.949 17.497 19.265C16.935 20.581 16.551 21.271 16.551 21.271C15.5737 21.5891 14.6537 22.0618 13.826 22.671C13.002 23.438 12.667 24.027 13.101 24.616C13.475 25.124 14.784 25.239 15.954 23.706C16.5757 22.9142 17.1436 22.0817 17.654 21.214C17.654 21.214 19.438 20.725 19.993 20.591C20.548 20.457 21.219 20.351 21.219 20.351C21.219 20.351 22.848 21.99 24.419 21.932C25.99 21.874 25.914 20.993 25.904 20.897" fill="#DD2025"/>
<path d="M23.954 2.07703V7.95003H29.587L23.954 2.07703Z" fill="#909090"/>
<path d="M24.031 2V7.873H29.664L24.031 2Z" fill="#F4F4F4"/>
<path d="M8.97503 4.45698H7.66803V9.25698H8.70003V7.63898L8.92803 7.65198C9.1486 7.64818 9.3671 7.60867 9.57503 7.53498C9.75732 7.47225 9.92502 7.37326 10.068 7.24398C10.2124 7.12046 10.3261 6.96503 10.4 6.78998C10.5003 6.49847 10.5361 6.18867 10.505 5.88198C10.4988 5.66288 10.4604 5.4459 10.391 5.23798C10.3279 5.08788 10.2342 4.95258 10.1159 4.84067C9.99766 4.72876 9.85738 4.6427 9.70403 4.58798C9.57083 4.53951 9.43316 4.50433 9.29303 4.48298C9.18746 4.46669 9.08085 4.458 8.97403 4.45698M8.78503 6.75098H8.69603V5.27098H8.89003C8.97521 5.26483 9.06068 5.27791 9.14013 5.30924C9.21958 5.34057 9.29097 5.38935 9.34903 5.45198C9.46935 5.61299 9.53362 5.80898 9.53203 6.00998C9.53203 6.25598 9.53203 6.47898 9.31003 6.63598C9.1501 6.72394 8.96805 6.76354 8.78603 6.74998M12.456 4.44397C12.345 4.44397 12.237 4.45198 12.161 4.45498L11.926 4.46098H11.146V9.26097H12.064C12.4149 9.27059 12.7641 9.21113 13.092 9.08598C13.3559 8.9813 13.5896 8.81256 13.772 8.59498C13.9494 8.37543 14.0767 8.11981 14.145 7.84598C14.2236 7.53584 14.2619 7.21689 14.259 6.89698C14.2784 6.51913 14.2492 6.14036 14.172 5.76998C14.0988 5.49734 13.9617 5.24607 13.772 5.03698C13.6232 4.86814 13.4411 4.73195 13.237 4.63698C13.0618 4.55589 12.8775 4.49613 12.688 4.45898C12.6127 4.44653 12.5364 4.44084 12.46 4.44198M12.278 8.37897H12.178V5.31498H12.191C12.3972 5.29125 12.6058 5.32845 12.791 5.42198C12.9267 5.5303 13.0372 5.66677 13.115 5.82198C13.199 5.98531 13.2474 6.16458 13.257 6.34798C13.266 6.56798 13.257 6.74798 13.257 6.89698C13.2611 7.06861 13.2501 7.24027 13.224 7.40998C13.1932 7.5842 13.1362 7.75277 13.055 7.90998C12.9631 8.05613 12.8389 8.17928 12.692 8.26998C12.5687 8.34977 12.4225 8.387 12.276 8.37598M17.353 4.46098H14.923V9.26097H15.951V7.35698H17.251V6.46498H15.951V5.35298H17.351V4.46098" fill="white"/>
</svg>
